<svg width="70" height="70" viewBox="0 0 70 70" fill="none" xmlns="http://www.w3.org/2000/svg">
<path d="M32.0833 5.83337H37.9166V11.6667H39.375C40.5353 11.6667 41.6481 12.1276 42.4686 12.9481C43.289 13.7686 43.75 14.8814 43.75 16.0417V26.25L42.4666 27.5334L47.25 35.8167C50.4875 32.6375 52.5 28.2334 52.5 23.3334H58.3333C58.3333 30.3917 55.2125 36.7209 50.2541 41.0084L59.4125 56.875L59.7916 63.35L54.3375 59.7917L45.3833 44.2459C42.2916 45.7917 38.7333 46.6667 35 46.6667C31.2666 46.6667 27.7083 45.7917 24.6166 44.2459L15.6625 59.7917L10.2083 63.35L10.5875 56.875L27.5333 27.5334L26.25 26.25V16.0417C26.25 14.8814 26.7109 13.7686 27.5314 12.9481C28.3519 12.1276 29.4647 11.6667 30.625 11.6667H32.0833V5.83337ZM27.5333 39.1709C29.8083 40.25 32.3458 40.8334 35 40.8334C37.6541 40.8334 40.1916 40.25 42.4666 39.1709L38.2083 31.7917H38.1791C36.3708 33.5417 33.6291 33.5417 31.8208 31.7917H31.7916L27.5333 39.1709ZM35 17.5C34.2264 17.5 33.4846 17.8073 32.9376 18.3543C32.3906 18.9013 32.0833 19.6432 32.0833 20.4167C32.0833 21.1903 32.3906 21.9321 32.9376 22.4791C33.4846 23.0261 34.2264 23.3334 35 23.3334C35.7735 23.3334 36.5154 23.0261 37.0624 22.4791C37.6094 21.9321 37.9166 21.1903 37.9166 20.4167C37.9166 19.6432 37.6094 18.9013 37.0624 18.3543C36.5154 17.8073 35.7735 17.5 35 17.5Z" fill="#4ECB71"/>
</svg>
