<svg width="70" height="70" viewBox="0 0 70 70" fill="none" xmlns="http://www.w3.org/2000/svg">
<g clip-path="url(#clip0_6_208)">
<path d="M14.1991 57.6022L9.69232 8.61536H59.2308L54.718 57.5945L34.4315 63.0431L14.1991 57.6022Z" fill="#1572B6"/>
<path d="M34.4615 58.8563L51.0262 54.4729L54.9231 12.8021H34.4615V58.8563Z" fill="#33A9DC"/>
<path d="M34.4615 29.9449H42.9866L43.5744 23.9198H34.4615V18.0355H50.6154L50.4612 19.6137L48.8791 35.8292H34.4615V29.9449Z" fill="white"/>
<path d="M34.4616 45.4118L34.4349 45.4194L27.8733 43.6525L27.4539 38.9692H21.5385L22.3639 48.1895L34.433 51.5295L34.4616 51.5219V45.4118Z" fill="#EBEBEB"/>
<path d="M42.1878 35.8292L41.4352 43.6727L34.4615 45.4351V51.5295L47.28 48.2019L47.3751 47.2127L48.4615 35.8292H42.1878Z" fill="white"/>
<path d="M34.4616 18.0355V23.9198H19.924L19.8033 22.5967L19.5287 19.6137L19.3846 18.0355H34.4616ZM34.4401 29.9449V35.8292H27.8217L27.701 34.5061L27.4284 31.5231L27.2843 29.9449H34.4401Z" fill="#EBEBEB"/>
<rect width="80" height="84" fill="black" fill-opacity="0.2"/>
</g>
<defs>
<clipPath id="clip0_6_208">
<rect width="70" height="70" fill="white"/>
</clipPath>
</defs>
</svg>
