<svg width="42" height="46" viewBox="0 0 42 46" fill="none" xmlns="http://www.w3.org/2000/svg">
<path d="M8.03089 38.5769L5.13545 3.31287H36.9621L34.0628 38.5713L21.0294 42.4936L8.03089 38.5769Z" fill="#1572B6"/>
<path d="M21.0488 39.4963L31.5811 36.3269L34.0589 6.1969H21.0488V39.4963Z" fill="#33A9DC"/>
<path d="M21.0488 18.9726H26.3214L26.6849 14.5438H21.0488V10.2185H31.0397L30.9443 11.3785L29.9658 23.2979H21.0488V18.9726Z" fill="white"/>
<path d="M21.0733 30.2049L21.0552 30.2105L16.6179 28.9091L16.3343 25.4598H12.3341L12.8923 32.2507L21.0539 34.7107L21.0733 34.7051V30.2049Z" fill="#EBEBEB"/>
<path d="M25.9823 23.1145L25.5028 28.9063L21.0591 30.2076V34.7078L29.2271 32.2506L29.2877 31.5202L29.98 23.1145H25.9823Z" fill="white"/>
<path d="M21.0629 10.2185V14.5438H11.4381L11.3582 13.5713L11.1764 11.3785L11.081 10.2185H21.0629ZM21.0488 18.9726V23.2979H16.6669L16.587 22.3253L16.4065 20.1326L16.3111 18.9726H21.0488Z" fill="#EBEBEB"/>
</svg>
