<svg width="28" height="45" viewBox="0 0 28 45" fill="none" xmlns="http://www.w3.org/2000/svg">
<g clip-path="url(#clip0_6_310)">
<path d="M7.20028 44.8039C10.9955 44.8039 14.0758 41.4605 14.0758 37.3409V29.8779H7.20028C3.40502 29.8779 0.324799 33.2214 0.324799 37.3409C0.324799 41.4605 3.40502 44.8039 7.20028 44.8039Z" fill="#0ACF83"/>
<path d="M0.324799 22.415C0.324799 18.2954 3.40502 14.952 7.20028 14.952H14.0758V29.878H7.20028C3.40502 29.878 0.324799 26.5346 0.324799 22.415Z" fill="#A259FF"/>
<path d="M0.324799 7.48899C0.324799 3.36942 3.40502 0.026001 7.20028 0.026001H14.0758V14.952H7.20028C3.40502 14.952 0.324799 11.6086 0.324799 7.48899Z" fill="#F24E1E"/>
<path d="M14.0758 0.026001H20.9512C24.7465 0.026001 27.8267 3.36942 27.8267 7.48899C27.8267 11.6086 24.7465 14.952 20.9512 14.952H14.0758V0.026001Z" fill="#FF7262"/>
<path d="M27.8267 22.415C27.8267 26.5346 24.7465 29.878 20.9512 29.878C17.156 29.878 14.0758 26.5346 14.0758 22.415C14.0758 18.2954 17.156 14.952 20.9512 14.952C24.7465 14.952 27.8267 18.2954 27.8267 22.415Z" fill="#1ABCFE"/>
</g>
<defs>
<clipPath id="clip0_6_310">
<rect width="27.5019" height="44.778" fill="white" transform="translate(0.324799 0.026001)"/>
</clipPath>
</defs>
</svg>
