<svg width="35" height="34" viewBox="0 0 35 34" fill="none" xmlns="http://www.w3.org/2000/svg">
<g clip-path="url(#clip0_563_17)">
<path d="M5.29883 27.4327L9.48375 0.653975C9.50881 0.493939 9.58352 0.345821 9.69733 0.230542C9.81113 0.115264 9.95827 0.0386512 10.118 0.0115256C10.2777 -0.0156 10.4419 0.0081323 10.5873 0.0793705C10.7328 0.150609 10.8522 0.265752 10.9287 0.408538L15.2568 8.48088L16.9818 5.19616C17.0474 5.07157 17.1458 4.96726 17.2663 4.89449C17.3869 4.82172 17.525 4.78326 17.6658 4.78326C17.8066 4.78326 17.9447 4.82172 18.0653 4.89449C18.1858 4.96726 18.2842 5.07157 18.3498 5.19616L30.0293 27.4327H5.29883Z" fill="#FFA000"/>
<path d="M19.7565 17.0013L15.2547 8.4769L5.29883 27.4327L19.7565 17.0013Z" fill="#F57C00"/>
<path d="M30.0293 27.4327L26.824 7.59794C26.8002 7.45815 26.7385 7.32759 26.6456 7.22051C26.5526 7.11342 26.4321 7.03393 26.297 6.99072C26.162 6.94758 26.0177 6.94245 25.8799 6.97591C25.7422 7.00936 25.6163 7.0801 25.5161 7.18038L5.29883 27.4324L16.4856 33.706C16.8311 33.8988 17.2202 34.0001 17.6159 34.0001C18.0115 34.0001 18.4006 33.8988 18.7461 33.706L30.0293 27.4327Z" fill="#FFCA28"/>
<path d="M26.8239 7.59794C26.8001 7.45815 26.7384 7.32759 26.6454 7.2205C26.5525 7.11342 26.4319 7.03393 26.2969 6.99072C26.1619 6.94754 26.0176 6.94237 25.8798 6.97578C25.7421 7.00919 25.6162 7.07988 25.516 7.18011L21.5032 11.2035L18.3478 5.19616C18.2822 5.07156 18.1838 4.96725 18.0633 4.89448C17.9427 4.82171 17.8046 4.78325 17.6638 4.78325C17.523 4.78325 17.3849 4.82171 17.2643 4.89448C17.1438 4.96725 17.0454 5.07156 16.9798 5.19616L15.2549 8.48061L10.9268 0.408531C10.8502 0.265549 10.7305 0.150285 10.5848 0.0790632C10.4391 0.00784115 10.2746 -0.01573 10.1147 0.0116875C9.95494 0.0389836 9.80777 0.115889 9.69411 0.231503C9.58045 0.347117 9.50607 0.495574 9.4815 0.655828L5.2987 27.4327H5.28516L5.29844 27.4481L5.40867 27.5023L25.5101 7.37747C25.6104 7.27678 25.7364 7.20567 25.8744 7.17195C26.0125 7.13823 26.1571 7.1432 26.2925 7.18633C26.4279 7.22945 26.5487 7.30905 26.6418 7.41639C26.7349 7.52373 26.7966 7.65465 26.8202 7.79477L29.9984 27.4518L30.0292 27.4324L26.8239 7.59794ZM5.33536 27.396L9.48336 0.845219C9.50801 0.684926 9.58245 0.536445 9.69614 0.420796C9.80983 0.305147 9.95703 0.228187 10.1169 0.200812C10.2768 0.173459 10.4412 0.197089 10.587 0.268356C10.7327 0.339623 10.8523 0.454918 10.9289 0.597922L15.2565 8.67027L16.9817 5.38555C17.0473 5.26095 17.1457 5.15664 17.2662 5.08387C17.3867 5.0111 17.5249 4.97264 17.6657 4.97264C17.8065 4.97264 17.9446 5.0111 18.0651 5.08387C18.1857 5.15664 18.2841 5.26095 18.3497 5.38555L21.441 11.2652L5.33483 27.396H5.33536Z" fill="white" fill-opacity="0.2"/>
<path opacity="0.2" d="M18.7461 33.5166C18.4007 33.7094 18.0116 33.8107 17.6159 33.8107C17.2202 33.8107 16.8311 33.7094 16.4857 33.5166L5.32543 27.2611L5.29834 27.4329L16.4851 33.7043C16.8306 33.8972 17.2197 33.9985 17.6154 33.9985C18.011 33.9985 18.4001 33.8972 18.7456 33.7043L30.0294 27.4329L30.0001 27.255L18.7456 33.5171L18.7461 33.5166Z" fill="#A52714"/>
</g>
<defs>
<clipPath id="clip0_563_17">
<rect width="34" height="34" fill="white" transform="translate(0.657227)"/>
</clipPath>
</defs>
</svg>
