<svg width="42" height="45" viewBox="0 0 42 45" fill="none" xmlns="http://www.w3.org/2000/svg">
<g clip-path="url(#clip0_6_338)">
<path d="M12.3301 38.0126C10.759 36.6693 9.0814 35.3819 7.93663 33.5721C5.52678 30.378 3.6704 26.68 2.40187 22.7937C1.63525 20.2656 1.37055 17.5547 0.383914 15.1255C-0.650846 13.3642 0.560958 11.435 2.33999 10.8716C3.13067 10.7092 4.52639 9.89764 2.84362 10.4779C1.33445 11.6794 1.18835 9.38643 2.73533 9.24276C3.79244 9.08977 4.17918 8.1513 3.81822 7.30798C2.68376 6.50571 6.56841 5.62321 4.61406 4.42727C2.58063 2.04098 7.46222 1.58387 6.25902 4.2892C5.97196 6.36951 9.66926 3.90672 8.81154 6.30981C9.68301 7.4647 12.0774 6.57101 12.0172 8.19235C13.2892 8.28563 13.7241 9.44613 14.917 9.53569C16.1546 10.1421 18.3925 10.6178 18.8119 12.1291C17.5864 13.1851 14.7485 9.95548 14.6127 12.8716C14.9823 17.1815 14.8877 21.6201 16.3385 25.7229C17.026 28.2081 18.6933 30.1634 20.1956 32.1C21.6343 33.9956 23.5835 35.3278 25.5705 36.4528C27.3135 37.3447 29.1922 37.9361 31.0933 38.3074C31.8633 37.6674 33.2247 35.2905 34.4244 36.2924C34.4812 37.4193 32.0386 38.6488 34.3093 38.5238C35.6431 38.0872 36.5679 39.6433 37.6662 38.2402C38.6769 39.5406 41.8706 37.4081 41.1504 40.0687C40.1775 40.7478 38.7577 40.3373 37.7831 41.2739C36.176 40.4026 34.8954 42.0538 33.1164 41.8448C31.1387 42.2159 29.1348 42.397 27.1278 42.3859C23.8413 42.1061 20.4844 41.9866 17.3578 40.7441C15.5976 40.1899 13.8805 39.1003 12.3318 38.0126H12.3301ZM15.106 39.3186C16.8249 40.1246 18.506 40.9754 20.3899 41.2329C23.3807 41.6807 26.4695 42.3784 29.4706 41.7441C28.1127 41.078 26.7067 42.0053 25.354 41.2683C23.7313 41.6471 21.9901 41.1713 20.34 40.9381C18.463 40.0313 16.4382 39.4082 14.6832 38.229C12.4882 37.3596 15.8177 39.3447 16.4107 39.5071C17.7823 40.3522 14.9032 39.0723 14.4958 38.7216C13.3476 38.0219 13.1998 38.1675 14.3824 38.8783C14.6213 39.0276 14.8568 39.188 15.1043 39.3168L15.106 39.3186ZM11.8333 36.8073C13.5006 37.4771 11.8264 35.5349 11.0598 35.6468C10.7229 35.0106 9.76895 34.6076 10.441 34.2662C9.23094 34.7214 9.17422 32.531 8.60184 32.8426C7.323 32.4042 8.10336 30.8463 6.58044 29.8947C6.44122 28.8872 5.0644 28.0141 4.62437 26.4953C4.43014 25.7192 3.06879 23.4859 3.90588 25.5625C4.61749 27.5625 5.87055 29.2753 6.9139 30.9862C7.72177 32.615 8.67919 34.3184 10.154 35.3334C10.6524 35.8521 11.1303 36.645 11.8333 36.8073ZM7.03251 31.0851C7.08923 30.8127 7.33675 31.6765 7.03251 31.0851V31.0851ZM13.8289 37.6096C13.2961 37.3857 14.1985 37.4305 13.8289 37.6096V37.6096ZM14.733 37.9678C14.3205 38.244 14.6402 37.4734 14.733 37.9678V37.9678ZM15.8675 38.4809C15.0356 38.1301 16.4038 37.9212 15.8675 38.4809V38.4809ZM17.8047 39.6563C16.7562 39.4567 18.133 39.1302 17.8047 39.6563V39.6563ZM14.0799 36.8334C12.997 36.826 14.917 36.2457 14.0799 36.8334V36.8334ZM14.929 37.2924C14.6265 37.4324 14.9049 36.9827 14.929 37.2924V37.2924ZM19.1746 40.1694C19.857 40.6358 23.1624 41.1956 21.0912 40.3616C20.7474 40.4399 17.2581 39.2906 19.1729 40.1694H19.1746ZM12.4349 34.4714C11.3761 34.1262 12.3662 34.1598 12.4349 34.4714V34.4714ZM14.4116 35.7215C13.3442 35.4229 14.9273 35.3297 14.4116 35.7215V35.7215ZM16.072 36.8279C14.8757 36.5237 16.8112 36.5256 16.072 36.8279V36.8279ZM11.6305 33.5199C12.4315 34.1878 14.862 33.6057 12.8578 33.1225C11.9468 32.5945 9.88927 32.2344 11.2902 33.4397L11.6305 33.5199ZM17.1996 37.2103C15.7987 36.8558 17.5314 36.5946 17.1996 37.2103V37.2103ZM15.5083 35.7494C17.4678 36.3521 13.8616 34.4061 15.0253 35.5293L15.2831 35.6562L15.5065 35.7494H15.5083ZM18.8996 37.8764C17.2237 37.6021 20.756 37.8951 18.8996 37.8764V37.8764ZM10.9172 32.3538C10.4599 32.3874 10.845 31.9806 10.9172 32.3538V32.3538ZM22.0382 39.7888C21.4315 40.2925 22.0864 39.1115 22.0382 39.7888V39.7888ZM14.0799 34.4602C13.5023 34.4453 13.9699 34.1039 14.0799 34.4602V34.4602ZM11.0925 32.1206C9.63488 31.6112 12.1582 32.0515 11.0925 32.1206V32.1206ZM7.55161 29.6354C6.39309 28.6391 7.41925 29.0813 7.55161 29.6354V29.6354ZM16.8455 36.0442C16.6496 35.8017 16.7527 36.0965 16.8455 36.0442V36.0442ZM22.6313 39.897C22.3167 40.0369 22.6141 39.5295 22.6313 39.897V39.897ZM16.3333 35.4696C15.4258 35.3259 16.4365 34.9938 16.3333 35.4696V35.4696ZM12.0258 32.4993C10.7539 31.9191 12.8165 32.406 12.0258 32.4993V32.4993ZM19.3156 37.4193C18.1123 37.1581 20.5497 36.8876 19.3156 37.4193V37.4193ZM15.5237 34.6263C16.9452 34.824 13.8306 33.5759 15.2126 34.5143L15.5237 34.6263ZM20.4672 37.9249C21.7959 37.0629 21.3576 39.9436 22.7206 38.1675C24.0648 37.104 21.5604 39.4865 23.2191 38.3596C24.4154 37.4883 26.1859 38.7701 27.3032 39.1899C28.1076 39.147 28.8897 39.9455 29.7147 39.4604C31.3012 38.994 26.6104 38.7701 27.8412 37.9492C26.3887 38.4063 25.3144 37.4006 24.6011 36.3913C22.9716 35.9808 21.0877 35.0796 20.2747 33.5143C19.9447 32.9266 20.756 33.5964 19.9894 32.6374C19.0096 31.6896 18.518 30.613 17.858 29.4619C17.0724 29.0066 16.9813 27.6652 16.9005 29.4171C16.9074 28.3107 15.95 27.5663 15.718 27.876C15.7145 26.8106 16.7407 27.3443 16.0205 26.5569C15.8658 25.4524 15.357 24.2994 15.204 23.0549C14.9668 22.4541 15.1696 21.1686 14.391 22.5288C14.1074 23.9654 14.2965 20.7619 14.7382 21.8198C15.3175 20.7376 14.5319 20.8682 14.4976 21.0175C14.8757 20.107 14.7382 18.8159 14.3996 19.3085C14.6007 18.3439 14.7176 15.7598 14.0988 16.2188C14.4735 15.2113 14.8104 11.6048 13.1809 12.9799C12.5209 12.9892 11.3795 13.2411 10.8381 13.5321C12.5329 14.5452 10.6662 13.8978 9.97865 13.7373C9.88927 14.674 9.20516 14.2691 8.3526 14.2784C9.71566 14.4613 7.68912 15.7897 6.90703 15.2747C5.8929 15.8009 7.78365 17.1162 6.92766 17.523C7.03079 18.1349 5.37208 17.2991 5.50099 18.717C4.51608 18.2674 5.36692 20.3962 5.86024 19.676C7.53614 20.1686 7.03938 21.2918 7.08064 22.3571C6.80905 22.9784 5.73304 20.8962 6.83999 20.9932C5.96853 19.4503 5.87571 20.4335 5.14862 21.1518C4.97674 21.2041 7.00329 22.1724 5.73304 22.65C6.85031 22.8366 6.88125 23.9001 7.10814 24.5718C7.7785 25.3311 7.64099 23.7322 8.44714 24.6464C7.93835 23.8329 5.75367 22.3552 7.51207 22.8291C7.50348 22.0082 7.19408 21.3496 7.73381 21.3664C8.26666 20.3178 7.17517 23.9542 8.37838 22.6202C8.71012 22.4616 8.79091 21.5698 9.39252 22.7041C10.2605 23.6333 9.70535 24.3049 8.4798 23.456C8.69809 24.2639 10.1196 24.5512 9.85317 25.8162C10.1368 26.9263 10.5321 26.5177 10.8776 26.4543C11.1492 27.5327 11.3022 26.7397 11.3159 26.2248C12.5535 26.514 12.2648 27.3069 12.6532 27.8667C13.5075 28.2846 11.4294 25.027 12.8973 26.8853C14.4408 28.3965 13.4766 29.0309 12.0894 28.7883C12.9661 28.7118 13.2497 30.0757 14.3463 30.0272C15.3467 30.544 16.0222 32.5273 14.2999 31.7008C13.7017 31.1168 11.5841 30.3947 13.315 31.5067C14.9118 32.309 16.1769 32.7904 17.717 33.796C18.8171 34.6505 19.2949 35.6282 19.7109 35.8222C18.7861 36.3017 16.9212 35.4379 18.3066 35.1729C17.442 35.0031 16.4708 34.5292 17.2976 35.6953C18.0023 36.3353 19.79 36.2663 20.1114 36.339C19.8381 36.9883 19.3723 37.0405 20.1217 37.0909C19.2863 37.576 20.3899 37.6506 20.4672 37.9268V37.9249ZM18.7586 32.6859C18.2499 32.1075 18.1175 31.0254 18.6675 31.9676C18.9494 32.0907 19.57 33.7344 18.7586 32.6859ZM24.3243 36.5237C24.3347 36.7849 24.6423 36.5032 24.3243 36.5237V36.5237ZM17.9542 31.2698C17.937 30.3966 18.1381 31.9415 17.9542 31.2698V31.2698ZM17.4007 30.4619C16.7613 29.1186 18.2086 30.8425 17.4007 30.4619V30.4619ZM10.6971 25.4393C10.8828 26.1371 11.0736 25.3274 10.6971 25.4393V25.4393ZM16.0325 28.5775C16.2628 27.6372 16.3041 29.3686 16.0325 28.5775V28.5775ZM12.2647 25.7322C11.9983 25.2136 12.8199 26.2173 12.2647 25.7322V25.7322ZM15.4997 26.8592C14.8946 25.3852 15.9294 26.0532 15.6337 27.1017L15.4997 26.8592ZM9.92021 22.8198C9.64863 22.3347 9.20172 20.9167 9.34611 20.4839C9.47674 21.1891 10.7281 23.5195 9.95974 21.4504C9.11062 19.7152 10.9739 22.0138 11.1664 22.4467C11.2523 22.8758 10.6421 22.3291 11.0564 23.3385C10.3001 22.1873 10.6095 23.9728 9.92021 22.8198ZM8.19618 21.5306C8.26494 20.4055 8.59152 22.3011 8.19618 21.5306V21.5306ZM8.96967 21.8198C9.34095 20.9709 9.59878 23.0027 8.96967 21.8198V21.8198ZM7.10642 20.2525C6.46356 19.5622 5.99947 18.9223 7.13564 19.8234C7.57395 19.8421 6.16276 18.3719 7.23877 19.357C8.37323 19.5809 7.80084 21.3757 7.10642 20.2525ZM8.08617 20.2246C8.28384 20.6201 8.45917 19.8234 8.08617 20.2246V20.2246ZM8.68778 20.4354C8.12399 19.2842 9.37533 20.9167 8.68778 20.4354V20.4354ZM7.48973 19.1909C5.62303 17.3886 9.83599 20.135 7.79397 19.5268L7.48973 19.1909ZM12.8354 22.5642C12.0275 22.0381 12.624 18.8626 12.899 21.0343C13.6845 20.7582 12.856 22.1537 13.4405 22.1425C13.3494 23.025 13.0864 23.3422 12.8389 22.5642H12.8354ZM14.8121 23.8329C14.8946 22.8758 14.9823 24.4859 14.8121 23.8329V23.8329ZM14.4683 23.4635C14.4804 23.9449 14.5612 23.053 14.4683 23.4635V23.4635ZM7.85757 18.5995C6.65951 16.8028 11.3417 20.4149 8.6259 19.0547C8.34229 18.9745 8.00023 18.9428 7.85757 18.5995ZM11.6666 20.7917C11.5531 19.2805 11.9193 21.0418 11.6666 20.7917V20.7917ZM14.5577 22.8049C14.5749 23.3739 14.7812 21.9429 14.5577 22.8049V22.8049ZM8.03977 17.9129C8.7531 17.7487 10.9928 19.273 8.93358 18.3495C8.70669 18.0733 8.21853 18.2002 8.03977 17.9129ZM14.1589 21.2246C14.2346 19.676 14.5852 20.3011 14.1624 21.4448L14.1589 21.2246ZM8.5709 17.3756C8.86139 16.9129 7.7974 15.2859 8.72388 16.7916C9.12265 17.1367 9.87896 17.37 9.21032 17.5136C10.2588 18.5193 8.95249 17.786 8.5709 17.3756ZM13.8564 20.7414C14.0335 21.7731 14.0575 18.9801 13.8564 20.7414V20.7414ZM7.96414 15.7486C8.08102 16.0695 8.18587 15.646 7.96414 15.7486V15.7486ZM9.34267 16.6405C9.69676 15.8307 9.99584 17.5416 9.34267 16.6405V16.6405ZM13.2325 18.9894C13.229 18.6779 13.3064 19.4409 13.2325 18.9894V18.9894ZM13.0073 18.4484C12.4676 17.0005 13.5092 19.2133 13.0073 18.4484V18.4484ZM12.6756 17.4968C12.5845 16.8998 12.985 18.2506 12.6756 17.4968V17.4968ZM13.2153 16.5453C12.844 15.8363 13.6828 13.4239 13.7756 14.9221C13.3855 16.0882 13.6639 16.7412 13.9355 15.1758C14.4391 13.9444 13.8272 17.6069 13.2136 16.5472L13.2153 16.5453ZM13.7688 12.9575C13.8031 13.2168 13.9303 12.7429 13.7688 12.9575V12.9575ZM12.8423 32.7587C12.6223 32.5516 12.8698 32.8893 12.8423 32.7587V32.7587ZM14.7502 33.8035C15.8073 34.102 15.8022 33.6262 14.8448 33.4863C14.3291 32.9639 12.7031 32.4135 14.1572 33.421C14.2552 33.6859 14.5612 33.6803 14.7485 33.8053L14.7502 33.8035ZM10.9842 31.0907C11.5686 31.5627 13.1843 32.4321 11.8161 31.2698C12.2785 30.6877 10.9326 30.378 11.3795 29.9899C10.2451 29.2361 10.4857 29.3033 11.2798 29.3257C9.91505 28.6652 11.4758 28.7137 11.4002 28.3741C10.8759 28.2622 8.78747 27.3666 10.0182 28.4488C8.77029 27.7584 9.72082 28.7062 9.34439 28.6055C8.06727 28.2286 10.4788 29.6596 9.14156 29.3052C9.87208 29.9339 11.1114 30.9172 9.45096 29.9712C9.23094 30.3127 10.637 30.8295 10.9842 31.0907ZM12.9781 32.3351C11.7903 31.2978 15.4017 33.1822 12.9781 32.3351V32.3351ZM23.1882 39.0481C22.8564 39.4959 23.2226 38.5257 23.1882 39.0481V39.0481ZM24.2384 39.5276C24.797 38.9399 24.2607 40.4661 25.1666 39.3839C25.1752 38.6096 25.1374 38.1525 24.125 39.0929C23.8465 39.2608 23.7227 39.9754 24.2384 39.5276ZM7.57911 28.1708C6.3759 27.4431 7.40722 27.4375 7.57911 28.1708V28.1708ZM8.69981 28.9693C7.21471 28.2902 8.28384 28.2193 8.69981 28.9693V28.9693ZM15.0768 33.143C15.6991 33.74 17.9336 33.5833 15.8331 33.2176C15.5203 32.7139 13.8547 32.837 15.0768 33.143ZM23.8379 39.0182C22.9097 39.4063 24.797 38.1451 23.8379 39.0182V39.0182ZM25.8318 40.5034C25.4193 40.6265 25.837 40.2235 25.8318 40.5034V40.5034ZM25.8335 40.1116C24.8056 40.1843 26.8941 38.8914 25.8335 40.1116V40.1116ZM4.82376 25.6669C3.91963 24.2676 4.26169 23.637 3.3885 22.4952C3.22349 21.6183 1.89308 19.635 2.70095 21.7377C3.44007 22.9672 3.66008 24.8703 4.82376 25.6669ZM25.5018 39.7235C24.7008 39.1264 27.4527 38.354 25.5018 39.7235V39.7235ZM26.9903 40.3578C26.3715 40.1675 27.9701 39.4474 26.9903 40.3578V40.3578ZM7.24737 26.6222C6.52544 26.5644 7.52754 26.1707 7.24737 26.6222V26.6222ZM26.6792 39.9231C27.6263 39.2608 26.4626 39.3634 26.5073 39.9828L26.6792 39.9231ZM13.8392 31.1355C13.339 31.1728 13.8049 30.6877 13.8392 31.1355V31.1355ZM14.6299 31.6336C14.2449 31.7213 14.3807 31.0795 14.6299 31.6336V31.6336ZM28.1987 40.3728C29.4105 39.4212 27.463 40.1899 27.9443 40.5519L28.1987 40.3728ZM27.7346 40.1302C26.6912 40.5276 28.7212 39.2309 27.7346 40.1302V40.1302ZM30.1066 41.843C29.3005 41.6881 30.7701 41.3616 30.1066 41.843V41.843ZM7.85757 26.2957C8.74622 26.5121 11.4088 28.6727 9.8377 26.445C9.03327 26.1875 9.51628 24.0512 8.69466 24.43C9.24469 25.4281 9.14844 25.8535 7.98992 25.2248C6.53747 24.4542 7.17517 25.6054 7.45707 25.9226C7.07204 26.0196 7.97101 26.2882 7.85757 26.2957ZM3.8079 22.8254C3.96604 22.1108 2.34171 18.8943 3.04129 21.2134C3.29224 21.6985 3.26474 22.6202 3.8079 22.8254ZM11.2403 27.7995C10.7831 27.3834 11.218 27.7398 11.2403 27.7995V27.7995ZM12.3679 28.0831C11.1217 27.7771 12.3679 27.3275 12.3679 28.0831V28.0831ZM22.1328 34.7681C21.3971 34.7569 21.9471 34.2494 22.1328 34.7681V34.7681ZM22.602 35.1393C22.3322 35.1953 22.5333 34.8502 22.602 35.1393V35.1393ZM26.4729 37.7887C26.0088 37.7514 26.8442 37.4902 26.4729 37.7887V37.7887ZM5.8293 23.3851C4.68797 23.068 6.895 22.9374 5.8293 23.3851V23.3851ZM21.2716 33.949C20.5927 34.1356 21.2596 33.2008 21.2716 33.949V33.949ZM5.40646 22.3235C4.77563 22.1556 6.09228 22.0716 5.40646 22.3235V22.3235ZM7.39347 23.3683C7.18377 23.4616 7.38144 23.1202 7.39347 23.3683V23.3683ZM31.6124 39.4884C32.4924 39.2944 34.4966 39.9735 34.8198 39.2347C33.7541 39.2067 31.1242 38.4175 31.0004 39.4212L31.2342 39.4642L31.6124 39.4884ZM8.02429 23.54C7.47941 23.512 8.03977 22.7806 8.02429 23.54V23.54ZM2.80408 19.607C1.90168 19.3868 2.56688 18.161 2.80408 19.607V19.607ZM4.04855 19.9466C2.90894 19.5286 4.06402 19.4801 4.04855 19.9466V19.9466ZM4.76016 20.3253C4.55389 20.1443 4.59859 20.5529 4.76016 20.3253V20.3253ZM9.23782 23.4411C8.73935 23.2862 9.44752 23.2321 9.23782 23.4411V23.4411ZM4.28747 19.4708C2.84362 19.3066 4.16715 18.3793 4.28747 19.4708V19.4708ZM1.73323 17.6722C1.48571 17.8625 1.69885 17.1685 1.73323 17.6722V17.6722ZM2.11138 17.3606C1.78479 17.4353 2.05122 16.7636 2.11138 17.3606V17.3606ZM4.2084 18.7208C5.09878 18.342 2.59266 17.9371 4.02964 18.6461L4.2084 18.7208ZM32.2844 37.5443C31.5625 37.3689 32.8517 36.979 32.2844 37.5443V37.5443ZM35.6775 39.453C35.1034 39.5462 35.9044 38.7216 35.6775 39.453V39.453ZM4.42498 17.5267C3.72024 17.6666 4.51952 16.8177 4.42498 17.5267V17.5267ZM1.44102 15.3587C1.28116 14.3605 1.30351 12.6086 2.83674 13.2019C0.789568 13.6422 4.25309 15.9632 3.8165 14.131C4.67593 14.1758 5.50099 13.5788 5.04721 14.4855C6.74374 14.2803 7.91773 12.6869 9.55753 12.909C10.8329 12.7261 12.2287 12.588 13.6038 12.0302C14.7348 11.9406 15.8211 10.6197 15.2023 9.83794C13.6622 9.69614 12.0482 9.9051 10.3431 10.2727C8.45573 10.698 6.7403 11.5078 4.83407 11.8567C2.97769 12.1272 5.20707 12.603 4.67593 12.7075C3.70649 13.0731 5.83102 13.3194 4.55046 13.7038C3.75978 13.5396 2.93472 13.2448 3.27334 12.3418C1.4943 12.5899 -0.0698681 13.3922 1.33617 15.3568H1.4393L1.44102 15.3587ZM5.72788 12.9892C6.14557 11.3212 7.96242 14.3605 6.41199 13.2093C6.22636 13.0601 5.92212 12.9369 5.72788 12.9855V12.9892ZM5.80867 12.1795C6.12838 12.4518 6.41028 11.6944 5.80867 12.1795V12.1795ZM6.57357 12.1944C6.62857 11.4276 8.32338 12.6011 6.85374 12.4705L6.57357 12.1944ZM7.61864 11.7373C7.72865 12.1664 8.00023 11.2522 7.61864 11.7373V11.7373ZM7.88679 11.5432C8.52277 10.7148 11.4878 11.0152 9.31689 11.463C8.73591 10.9872 8.289 11.7429 7.88679 11.5432ZM11.7542 10.8958C11.6597 8.6308 13.6777 11.7018 11.7542 10.8958V10.8958ZM12.8543 10.8884C13.2548 9.74651 14.4116 10.4312 13.04 10.6589C13.0692 10.7801 12.9987 11.2484 12.8543 10.8884ZM3.99354 16.9427C2.71986 16.2524 5.1916 16.146 3.99354 16.9427V16.9427ZM4.87876 17.2114C3.96604 17.0136 5.29988 16.7263 4.87876 17.2114V17.2114ZM2.26608 15.1964C1.45649 14.9799 2.95191 14.6273 2.26608 15.1964V15.1964ZM37.6783 39.2459C37.1557 39.5444 37.6989 38.5835 37.6783 39.2459V39.2459ZM34.0807 36.5778C33.6166 36.6469 34.1838 35.8166 34.0807 36.5778V36.5778ZM38.67 39.5033C39.6275 39.5033 41.5715 39.1806 39.4865 39.1806C39.1599 39.2365 37.5803 39.2253 38.6683 39.5033H38.67ZM5.65741 16.7412C6.4309 16.6852 6.87093 15.8139 5.50787 15.8643C3.39366 15.6274 7.37112 16.6479 5.23629 16.3569C4.94924 16.5621 5.64194 16.799 5.65741 16.7431V16.7412ZM6.34152 17.1181C6.10088 17.4054 6.25902 16.577 6.34152 17.1181V17.1181ZM7.14939 14.7728C6.6853 14.6516 7.48801 14.3195 7.14939 14.7728V14.7728ZM4.57108 10.0935C5.95649 9.58233 7.84897 9.00954 8.50214 10.3454C7.83694 9.47598 8.234 8.62147 8.8631 9.89204C9.75004 11.1775 10.1952 9.30806 9.61597 8.87521C10.2743 9.76331 11.0237 10.1812 10.0577 8.93118C11.1062 7.56172 7.95554 9.11216 7.23877 9.09537C6.895 9.26329 3.67899 9.98533 4.5728 10.0935H4.57108ZM5.38239 8.40877C6.17307 7.76136 8.11196 8.79312 6.8675 7.76509C6.74717 7.64941 4.14137 8.54497 5.38239 8.40877ZM8.25978 8.53751C9.18453 8.56176 7.86272 7.19044 8.9628 7.80987C8.78232 7.16992 7.68052 7.05051 7.1408 6.7949C6.83827 7.38075 7.75959 8.54497 8.25806 8.53751H8.25978ZM5.88774 5.70157C5.32739 5.94039 6.20745 5.2314 5.88774 5.70157V5.70157ZM7.06345 6.00756C8.55199 5.79299 6.6853 5.31163 6.76436 5.9889L7.06345 6.00756ZM4.86845 4.14181C3.81994 2.65667 6.83827 4.39182 5.77429 2.83578C4.87704 2.0615 4.01589 3.70895 4.86845 4.14181ZM18.3169 12.0059C18.7982 11.0805 16.3316 10.7596 17.9937 11.6794C18.1484 11.7354 18.1141 12.0712 18.3169 12.0059Z" fill="white"/>
</g>
<defs>
<clipPath id="clip0_6_338">
<rect width="41.2529" height="44.778" fill="white" transform="translate(0.00231934 0.026001)"/>
</clipPath>
</defs>
</svg>
