<svg width="42" height="45" viewBox="0 0 42 45" fill="none" xmlns="http://www.w3.org/2000/svg">
<g clip-path="url(#clip0_6_333)">
<path d="M40.8972 20.4201L22.8858 0.870686C21.8492 -0.255235 20.1668 -0.255235 19.1289 0.870686L15.3887 4.93044L20.1333 10.0804C21.2358 9.67603 22.5002 9.94732 23.3791 10.9013C24.2621 11.8614 24.5103 13.2455 24.1287 14.4461L28.7012 19.4095C29.8074 18.9958 31.0838 19.2634 31.9674 20.224C33.2022 21.5639 33.2022 23.7354 31.9674 25.0761C30.7322 26.417 28.7316 26.417 27.4958 25.0761C26.567 24.0669 26.3375 22.5862 26.8077 21.3442L22.5435 16.7156L22.543 28.8961C22.8522 29.062 23.1345 29.2811 23.3791 29.545C24.6139 30.8849 24.6139 33.0566 23.3791 34.3984C22.1439 35.7385 20.1423 35.7385 18.9089 34.3984C17.6741 33.0566 17.6741 30.885 18.9089 29.5452C19.2048 29.2238 19.5565 28.9693 19.9436 28.7964V16.5024C19.556 16.3306 19.2041 16.076 18.9089 15.7536C17.9733 14.7394 17.7484 13.2493 18.2278 12.0024L13.5507 6.92516L1.20063 20.3297C0.162864 21.4567 0.162864 23.2829 1.20063 24.409L19.2124 43.9588C20.2493 45.0849 21.9313 45.0849 22.9696 43.9588L40.897 24.4998C41.9345 23.3734 41.9345 21.546 40.897 20.4201" fill="#DE4C36"/>
</g>
<defs>
<clipPath id="clip0_6_333">
<rect width="41.2529" height="44.778" fill="white" transform="translate(0.422306 0.026001)"/>
</clipPath>
</defs>
</svg>
