<svg width="35" height="35" viewBox="0 0 35 35" fill="none" xmlns="http://www.w3.org/2000/svg">
<g clip-path="url(#clip0_6_169)">
<path d="M17.5 -0.100586C7.77567 -0.100586 -0.100583 7.77567 -0.100583 17.5C-0.10258 21.1948 1.05897 24.7965 3.21926 27.794C5.37956 30.7915 8.42891 33.0326 11.9347 34.1994C12.8147 34.3525 13.1438 33.8245 13.1438 33.3616C13.1438 32.9445 13.121 31.5593 13.121 30.0844C8.6997 30.8993 7.55567 29.0072 7.20366 28.0163C7.00477 27.5094 6.14762 25.9483 5.3996 25.5294C4.78358 25.2002 3.90355 24.3853 5.37672 24.3642C6.76364 24.3413 7.75279 25.6403 8.08368 26.1683C9.66774 28.8295 12.1987 28.0815 13.209 27.6203C13.3639 26.4763 13.825 25.7071 14.3319 25.2671C10.4158 24.8271 6.32363 23.3082 6.32363 16.576C6.32363 14.661 7.00477 13.0787 8.12769 11.8449C7.95168 11.4049 7.33566 9.60085 8.30369 7.18077C8.30369 7.18077 9.77686 6.71964 13.1438 8.98659C14.5766 8.58893 16.057 8.38878 17.544 8.39169C19.04 8.39169 20.5361 8.58882 21.9441 8.98483C25.3094 6.69676 26.7843 7.18253 26.7843 7.18253C27.7523 9.60261 27.1363 11.4067 26.9603 11.8467C28.0815 13.0787 28.7644 14.6399 28.7644 16.576C28.7644 23.3311 24.6511 24.8271 20.735 25.2671C21.3721 25.8163 21.923 26.8723 21.923 28.5232C21.923 30.8764 21.9001 32.7685 21.9001 33.3634C21.9001 33.8245 22.231 34.3737 23.1111 34.1977C26.6048 33.0181 29.6407 30.7726 31.7915 27.7772C33.9422 24.7819 35.0996 21.1875 35.1006 17.5C35.1006 7.77567 27.2243 -0.100586 17.5 -0.100586Z" fill="white"/>
</g>
<defs>
<clipPath id="clip0_6_169">
<rect width="35" height="35" fill="white"/>
</clipPath>
</defs>
</svg>
