<svg width="30" height="30" viewBox="0 0 30 30" fill="none" xmlns="http://www.w3.org/2000/svg">
<g clip-path="url(#clip0_6_273)">
<path d="M15 -0.0861816C6.66484 -0.0861816 -0.0862405 6.6649 -0.0862405 15C-0.0879516 18.167 0.907659 21.2542 2.75934 23.8235C4.61103 26.3927 7.22475 28.3137 10.2297 29.3138C10.984 29.4451 11.2661 28.9925 11.2661 28.5957C11.2661 28.2382 11.2465 27.0509 11.2465 25.7867C7.45686 26.4852 6.47626 24.8634 6.17454 24.014C6.00406 23.5796 5.26936 22.2414 4.6282 21.8824C4.10018 21.6002 3.34587 20.9017 4.60859 20.8836C5.79738 20.864 6.64523 21.9774 6.92885 22.43C8.2866 24.711 10.456 24.0699 11.3219 23.6746C11.4547 22.694 11.85 22.0347 12.2844 21.6576C8.92777 21.2804 5.42023 19.9785 5.42023 14.208C5.42023 12.5666 6.00406 11.2104 6.96656 10.1528C6.8157 9.77567 6.28768 8.22934 7.11742 6.15498C7.11742 6.15498 8.38014 5.75972 11.2661 7.70283C12.4942 7.36197 13.7631 7.19041 15.0377 7.19291C16.32 7.19291 17.6023 7.36188 18.8092 7.70132C21.6937 5.74011 22.9579 6.15649 22.9579 6.15649C23.7877 8.23084 23.2597 9.77718 23.1088 10.1543C24.0698 11.2104 24.6551 12.5485 24.6551 14.208C24.6551 19.9981 21.1295 21.2804 17.7728 21.6576C18.3189 22.1283 18.7911 23.0334 18.7911 24.4485C18.7911 26.4655 18.7715 28.0873 18.7715 28.5972C18.7715 28.9925 19.0551 29.4632 19.8095 29.3123C22.8041 28.3012 25.4063 26.3765 27.2498 23.8091C29.0933 21.2417 30.0853 18.1608 30.0862 15C30.0862 6.6649 23.3351 -0.0861816 15 -0.0861816Z" fill="#4F4F4F"/>
</g>
<defs>
<clipPath id="clip0_6_273">
<rect width="30" height="30" fill="white"/>
</clipPath>
</defs>
</svg>
