<svg width="70" height="70" viewBox="0 0 70 70" fill="none" xmlns="http://www.w3.org/2000/svg">
<path d="M15.5682 57.3908L11.2 8.40002H59.1974L54.8234 57.383L35.1695 62.832L15.5682 57.3908Z" fill="#E44F26"/>
<path d="M35.1987 58.668L51.0812 54.2648L54.8175 12.4066H35.1987V58.668Z" fill="#F1662A"/>
<path d="M35.1987 30.5752H27.2477L26.6995 24.4225H35.1987V18.4136H20.1327L20.2765 20.0271L21.752 36.5841H35.1987V30.5752V30.5752ZM35.1987 46.1797L35.1715 46.1875L28.4802 44.3815L28.0525 39.5896H22.0203L22.8621 49.0219L35.1715 52.4394L35.1987 52.4316V46.1797Z" fill="#EBEBEB"/>
<path d="M35.1773 30.5752V36.5841H42.5762L41.8802 44.3776L35.1773 46.1856V52.4375L47.4964 49.0219L47.5859 48.0071L48.9972 32.1888L49.1449 30.5752H35.1773V30.5752ZM35.1773 18.4136V24.4225H49.6912L49.8117 23.0733L50.0858 20.0271L50.2297 18.4136H35.1773V18.4136Z" fill="white"/>
</svg>
