<svg width="34" height="34" viewBox="0 0 34 34" fill="none" xmlns="http://www.w3.org/2000/svg">
<g clip-path="url(#clip0_563_2)">
<path d="M17.0202 0.000156293C19.7796 0.000156293 22.3778 0.644828 24.8152 1.89366L25.1374 2.0549L24.8555 2.27643C24.1707 2.8203 23.6268 3.52527 23.2843 4.33091L23.1836 4.55244L22.9823 4.45177C21.109 3.56551 19.1149 3.10226 17.0402 3.10226C9.36607 3.10226 3.14221 9.34631 3.14221 17.0003C3.14221 24.6543 9.34588 30.8985 17.0202 30.8985C24.6944 30.8985 30.9182 24.6544 30.9182 17.0003C30.9182 15.1675 30.5758 13.3748 29.8507 11.6827L29.75 11.4612L29.9715 11.3605C30.7974 11.0584 31.5225 10.5549 32.1066 9.91023L32.3282 9.62827L32.4692 9.9506C33.4965 12.1864 34 14.5632 34 16.96C34 26.3261 26.3661 33.96 17 33.96C7.63393 33.96 0 26.3261 0 16.9602C0 7.59424 7.63393 -0.0398203 17.0202 0.000156293ZM17.0202 9.26569C21.2702 9.26569 24.7548 12.7302 24.7748 17.0205C24.7748 21.3107 21.3104 24.7753 17.0202 24.7753C12.7298 24.7753 9.2654 21.3107 9.2654 17.0205C9.2654 12.7302 12.75 9.26569 17.0202 9.26569ZM28.1185 2.86054C30.0763 2.86054 31.6636 4.44765 31.6636 6.40557C31.6636 8.36336 30.0765 9.9506 28.1185 9.9506C26.1606 9.9506 24.5735 8.36349 24.5735 6.40557C24.5735 4.44765 26.1606 2.86054 28.1185 2.86054Z" fill="#3880FF"/>
</g>
<defs>
<clipPath id="clip0_563_2">
<rect width="34" height="34" fill="white"/>
</clipPath>
</defs>
</svg>
