<svg width="42" height="46" viewBox="0 0 42 46" fill="none" xmlns="http://www.w3.org/2000/svg">
<path d="M2.58063 3.31287H38.6769V42.4936H2.58063V3.31287Z" fill="#F5DE19"/>
<path d="M26.8283 33.9228C27.1359 34.6009 27.6137 35.1709 28.2067 35.567C28.7997 35.9631 29.4838 36.1693 30.1801 36.1617C31.5853 36.1617 32.4838 35.3991 32.4838 34.3426C32.4838 33.0832 31.5608 32.6326 30.0138 31.898L29.1655 31.5034C26.7161 30.3713 25.0918 28.9538 25.0918 25.9565C25.0918 23.1957 27.0255 21.0925 30.0589 21.0925C31.0409 21.0155 32.022 21.2541 32.8798 21.7784C33.7377 22.3027 34.4344 23.0896 34.8829 24.0409L32.2311 25.8809C32.0584 25.4093 31.7577 25.0057 31.3688 24.7238C30.98 24.4419 30.5213 24.295 30.0538 24.3025C29.8498 24.2804 29.6438 24.3046 29.4489 24.3736C29.254 24.4426 29.0744 24.555 28.9217 24.7035C28.7691 24.8519 28.6465 25.0333 28.562 25.2361C28.4775 25.4388 28.4327 25.6584 28.4307 25.8809C28.4307 26.985 29.0611 27.4328 30.5166 28.1198L31.3648 28.5145C34.2474 29.8564 35.8769 31.2235 35.8769 34.2978C35.8769 37.6128 33.4778 39.4291 30.2562 39.4291C29.0009 39.5159 27.7493 39.2065 26.6525 38.5384C25.5556 37.8702 24.6603 36.8718 24.0747 35.6635L26.8283 33.9228ZM14.8456 34.2418C15.378 35.2675 15.8628 36.1351 17.0282 36.1351C18.142 36.1351 18.8459 35.6621 18.8459 33.822V21.3024H22.2376V33.871C22.2376 37.6827 20.175 39.4179 17.1725 39.4179C16.1113 39.4809 15.0572 39.1938 14.1491 38.5944C13.2409 37.995 12.5211 37.1113 12.0843 36.0595L14.8456 34.2418Z" fill="black"/>
</svg>
