<svg width="70" height="52" viewBox="0 0 70 52" fill="none" xmlns="http://www.w3.org/2000/svg">
<path d="M43.4019 34.87C44.3047 36.7 45.7054 38.2381 47.4431 39.3077C49.1808 40.3773 51.185 40.9349 53.2254 40.9166C57.3515 40.9166 59.9877 38.8535 59.9877 36.0048C59.9877 32.5917 57.2787 31.3812 52.7394 29.3938L50.2487 28.3259C43.0644 25.2648 38.2894 21.4297 38.2894 13.323C38.2894 5.85362 43.981 0.170802 52.8733 0.170802C55.7594 -0.0386134 58.6431 0.607382 61.1641 2.02802C63.685 3.44866 65.7312 5.58091 67.0469 8.15817L59.2923 13.1368C58.7845 11.8597 57.9002 10.7673 56.7568 10.0049C55.6133 9.2424 54.2649 8.84593 52.8908 8.86816C52.2918 8.80789 51.6868 8.8731 51.1145 9.05964C50.5421 9.24618 50.0149 9.54994 49.5664 9.95157C49.118 10.3532 48.7582 10.8439 48.5099 11.3923C48.2616 11.9407 48.1304 12.5348 48.1245 13.1368C48.1245 16.1252 49.9751 17.3327 54.2351 19.1834L56.7259 20.2483C65.1875 23.8768 69.9625 27.5752 69.9625 35.8914C69.9625 44.8564 62.9208 49.7681 53.4611 49.7681C49.7763 50.0025 46.1025 49.1657 42.8827 47.3586C39.663 45.5515 37.035 42.8513 35.3156 39.5839L43.4019 34.87ZM8.22842 35.743C9.79388 38.5189 11.2168 40.8642 14.63 40.8642C17.9006 40.8642 19.9665 39.5839 19.9665 34.6081V0.752759H29.9238V34.7478C29.9238 45.0572 23.8773 49.7507 15.0548 49.7507C11.9384 49.9194 8.84389 49.1407 6.17847 47.5172C3.51304 45.8936 1.40153 43.5012 0.12175 40.6547L8.22842 35.743Z" fill="#F5DE19"/>
<rect width="70" height="49.5283" fill="black" fill-opacity="0.2"/>
</svg>
