<svg width="30" height="30" viewBox="0 0 30 30" fill="none" xmlns="http://www.w3.org/2000/svg">
<g clip-path="url(#clip0_6_271)">
<path d="M25.7607 25.7613H21.2809V18.7456C21.2809 17.0727 21.251 14.9191 18.951 14.9191C16.6177 14.9191 16.2607 16.7419 16.2607 18.6238V25.7608H11.7811V11.3338H16.0815V13.3054H16.1418C16.5722 12.5695 17.1941 11.9642 17.9413 11.5537C18.6885 11.1433 19.5331 10.9433 20.385 10.9749C24.9255 10.9749 25.7626 13.9615 25.7626 17.8468L25.7607 25.7613ZM6.72625 9.36186C5.29047 9.36209 4.12633 8.19831 4.12609 6.76253C4.12586 5.32675 5.28953 4.16261 6.7253 4.16237C8.16108 4.16202 9.32522 5.3258 9.32546 6.76158C9.32559 7.45107 9.05182 8.11237 8.56437 8.60002C8.07693 9.08766 7.41574 9.3617 6.72625 9.36186ZM8.96619 25.7614H4.4817V11.3338H8.96607V25.7613L8.96619 25.7614ZM27.994 0.00195634H2.23066C1.01301 -0.0117436 0.0144537 0.963669 -0.000427246 2.18131V28.0521C0.0139813 29.2704 1.01242 30.2467 2.23054 30.234H27.994C29.2147 30.2491 30.2171 29.2727 30.2339 28.0521V2.1793C30.2166 0.959299 29.2141 -0.0159953 27.994 -5.14092e-05" fill="#4F4F4F"/>
</g>
<defs>
<clipPath id="clip0_6_271">
<rect width="30" height="30" fill="white"/>
</clipPath>
</defs>
</svg>
