<svg width="35" height="35" viewBox="0 0 35 35" fill="none" xmlns="http://www.w3.org/2000/svg">
<g clip-path="url(#clip0_2_28)">
<path d="M30.0542 30.0548H24.8278V21.8699C24.8278 19.9181 24.7929 17.4056 22.1095 17.4056C19.3874 17.4056 18.9709 19.5322 18.9709 21.7278V30.0543H13.7446V13.2228H18.7618V15.523H18.8321C19.3342 14.6645 20.0598 13.9582 20.9316 13.4794C21.8033 13.0006 22.7886 12.7672 23.7825 12.8041C29.0797 12.8041 30.0564 16.2884 30.0564 20.8213L30.0542 30.0548ZM7.84733 10.9222C6.17226 10.9225 4.81409 9.5647 4.81382 7.88963C4.81354 6.21455 6.17115 4.85639 7.84623 4.85611C9.5213 4.8557 10.8795 6.21345 10.8797 7.88852C10.8799 8.69293 10.5605 9.46445 9.99181 10.0334C9.42312 10.6023 8.65174 10.922 7.84733 10.9222ZM10.4606 30.055H5.22869V13.2228H10.4605V30.0548L10.4606 30.055ZM32.6597 0.00229257H2.60247C1.18189 -0.0136907 0.0169034 1.12429 -0.000457764 2.54487V32.7275C0.0163522 34.1488 1.1812 35.2879 2.60234 35.273H32.6597C34.0839 35.2906 35.2533 34.1515 35.273 32.7275V2.54253C35.2527 1.11919 34.0832 -0.018651 32.6597 -4.98049e-05" fill="#0A66C2"/>
</g>
<defs>
<clipPath id="clip0_2_28">
<rect width="35" height="35" fill="white"/>
</clipPath>
</defs>
</svg>
