<svg width="19" height="40" viewBox="0 0 19 40" fill="none" xmlns="http://www.w3.org/2000/svg">
<g clip-path="url(#clip0_6_236)">
<path d="M12.7957 4.45254C11.1192 2.4634 9.67544 0.443071 9.38051 0.0235447C9.3735 0.016182 9.36507 0.0103202 9.35572 0.00631482C9.34638 0.00230947 9.33632 0.000244141 9.32616 0.000244141C9.31599 0.000244141 9.30593 0.00230947 9.29659 0.00631482C9.28724 0.0103202 9.27881 0.016182 9.2718 0.0235447C8.97687 0.443144 7.53315 2.4634 5.85657 4.45254C-8.53374 22.8056 8.12309 35.1913 8.12309 35.1913L8.26277 35.2846C8.38692 37.196 8.69745 39.9468 8.69745 39.9468H9.93934C9.93934 39.9468 10.2497 37.2116 10.374 35.2847L10.5137 35.1758C10.5292 35.1914 27.186 22.8057 12.7957 4.45254ZM9.31836 34.9116C9.31836 34.9116 8.57322 34.2745 8.3714 33.9482V33.917L9.2718 13.9322C9.2718 13.87 9.36499 13.87 9.36499 13.9322L10.2653 33.917V33.9482C10.0635 34.2745 9.31836 34.9116 9.31836 34.9116V34.9116Z" fill="#01EC64"/>
<rect width="18.8571" height="48" fill="black" fill-opacity="0.6"/>
</g>
<defs>
<clipPath id="clip0_6_236">
<rect width="18.6521" height="40" fill="white"/>
</clipPath>
</defs>
</svg>
