<svg width="80" height="80" viewBox="0 0 80 80" fill="none" xmlns="http://www.w3.org/2000/svg">
<path fill-rule="evenodd" clip-rule="evenodd" d="M21.9094 17.1625C21.2488 17.1604 20.5907 17.2445 19.9517 17.4125V17.5H20.0464C20.5041 18.1926 21.0144 18.8487 21.5727 19.4625C21.9568 20.2275 22.291 20.99 22.6726 21.755L22.7673 21.6575C23.1216 21.3756 23.3989 21.0083 23.5733 20.59C23.7478 20.1716 23.8137 19.7158 23.7649 19.265C23.5561 18.9422 23.3646 18.6084 23.1913 18.265C22.9045 17.7875 22.2835 17.5475 21.9019 17.165" fill="#5D87A1"/>
<path fill-rule="evenodd" clip-rule="evenodd" d="M65.8559 56.0449C63.0104 55.8445 60.1552 56.2578 57.4826 57.2569C56.8352 57.5169 55.8021 57.5169 55.7118 58.3378C56.0592 58.6837 56.0998 59.2422 56.4044 59.7239C56.9952 60.7266 57.7545 61.6194 58.6488 62.3627C59.5511 63.0546 60.4534 63.7443 61.4121 64.3503C63.0926 65.3927 64.9942 65.9964 66.6318 67.0343C67.5837 67.6403 68.5312 68.4182 69.4831 69.0694C69.9568 69.4154 70.2568 69.9739 70.8613 70.2V70.0689C70.6837 69.5883 70.464 69.1245 70.2049 68.6827C69.7741 68.2531 69.341 67.8619 68.9079 67.43C67.6426 65.7529 66.1287 64.2796 64.419 63.0614C63.0362 62.1072 60.0135 60.8002 59.4564 59.2174L59.3684 59.1292C60.3802 58.9855 61.3773 58.7524 62.3482 58.4327C63.8144 58.0438 65.1521 58.132 66.6612 57.7544C67.3537 57.5803 68.6056 57.1484 68.6056 57.1484V56.47C67.8341 55.7012 67.2815 54.6724 66.4694 53.9465C64.2602 52.0133 61.9057 50.2534 59.427 48.6825C58.1029 47.8255 56.3953 47.2737 54.9855 46.5434C54.4757 46.2856 53.6321 46.1589 53.323 45.7293C52.6219 44.6982 52.0349 43.5934 51.5726 42.4348C50.3106 39.9991 49.1435 37.5152 48.0739 34.9886C47.4437 33.3217 46.7169 31.6931 45.8972 30.1112C41.9414 23.3694 36.2315 17.8325 29.3785 14.0929C27.6493 13.2539 25.8109 12.6632 23.9173 12.3382C22.8481 12.293 21.7834 12.2093 20.7165 12.1686C20.0277 11.7163 19.3726 11.2145 18.7562 10.6672C16.3155 9.11828 10.0446 5.78979 8.24904 10.1969C7.09861 12.9804 9.95888 15.7164 10.9401 17.1297C11.7675 18.1262 12.4965 19.2008 13.1169 20.3383C13.4169 21.0664 13.5026 21.8375 13.7936 22.5995C14.4198 24.5557 15.1633 26.4722 16.02 28.3385C16.4783 29.2609 17.0061 30.1468 17.599 30.9886C17.9442 31.4612 18.5397 31.6669 18.6683 32.447C18.1952 33.4663 17.8643 34.546 17.6848 35.6557C16.9391 38.0161 16.6647 40.5007 16.8772 42.9675C17.0897 45.4343 17.7849 47.835 18.9231 50.0324C19.5999 51.1019 21.2285 53.4558 23.4053 52.5559C25.3249 51.7871 24.8986 49.3472 25.4535 47.2104C25.5798 46.6926 25.4963 46.3534 25.7512 46.012V46.428C25.7512 46.428 26.8408 48.8272 27.3821 50.0459C28.8544 52.2823 30.6834 54.2608 32.7959 55.9025C33.6315 56.6338 34.3047 57.5328 34.7719 58.5413V59.3169H35.7351C35.715 58.9672 35.6183 58.6262 35.4518 58.3182C35.2854 58.0102 35.0532 57.7428 34.7719 57.535C33.982 56.7201 33.2586 55.8429 32.6087 54.912C30.843 52.3913 29.2859 49.73 27.9528 46.9549C27.2761 45.5982 26.7054 44.1103 26.164 42.7559C25.9159 42.2335 25.9159 41.4444 25.4986 41.173C24.728 42.0869 24.0594 43.0825 23.5045 44.142C22.831 46.2834 22.4389 48.5038 22.3383 50.7469C22.1737 50.7921 22.2549 50.7469 22.1737 50.8328C20.845 50.4824 20.3871 49.042 19.8863 47.8209C18.5927 44.055 18.4622 39.9855 19.5119 36.1441C19.8006 35.2283 21.0526 32.343 20.5518 31.468C20.3014 30.6336 19.469 30.1565 19.0134 29.4984C18.4317 28.6132 17.9311 27.677 17.5178 26.7013C16.5276 24.2683 16.0268 21.5549 14.9486 19.1037C14.3517 17.9249 13.6567 16.7986 12.871 15.7368C12.0019 14.6762 11.2353 13.5352 10.5815 12.3292C10.3739 11.8475 10.0829 11.0606 10.4145 10.536C10.4369 10.3903 10.506 10.2559 10.6115 10.1531C10.7169 10.0502 10.8528 9.98466 10.9988 9.96622C11.5356 9.48685 13.0763 10.0974 13.6154 10.3597C15.0644 10.9315 16.4446 11.665 17.7299 12.5463C18.3118 12.9849 19.6833 14.0952 19.6833 14.0952H20.0894C21.4699 14.3959 23.0218 14.1788 24.3211 14.57C26.5088 15.301 28.5965 16.3038 30.5356 17.5548C36.2509 21.207 40.8972 26.3139 44.0001 32.3543C44.5189 33.347 44.7377 34.2583 45.2114 35.2939C46.1137 37.4194 47.2416 39.5902 48.1439 41.6569C48.9399 43.7017 49.9693 45.6472 51.2117 47.4546C51.8568 48.3591 54.4486 48.8385 55.6148 49.3133C56.6276 49.6645 57.6215 50.0683 58.5924 50.5231C60.0609 51.4275 61.5249 52.47 62.9076 53.4626C63.5956 53.9827 65.7543 55.0635 65.8852 55.9296" fill="#00758F"/>
</svg>
