<?xml version="1.0" standalone="no"?>
<!DOCTYPE svg PUBLIC "-//W3C//DTD SVG 20010904//EN"
 "http://www.w3.org/TR/2001/REC-SVG-20010904/DTD/svg10.dtd">
<svg version="1.0" xmlns="http://www.w3.org/2000/svg"
 width="353.000000pt" height="353.000000pt" viewBox="0 0 353.000000 353.000000"
 preserveAspectRatio="xMidYMid meet">

<g transform="translate(0.000000,353.000000) scale(0.100000,-0.100000)"
fill="#000000" stroke="none">
<path d="M1150 2784 c-180 -28 -268 -53 -375 -107 -204 -102 -377 -281 -475
-490 -76 -162 -111 -364 -91 -528 30 -259 131 -469 309 -641 153 -148 323
-237 537 -279 102 -20 1338 -20 1440 0 221 44 406 143 557 299 170 175 261
371 290 623 12 111 1 234 -33 364 -83 319 -342 596 -658 704 -159 55 -149 54
-836 57 -352 1 -651 0 -665 -2z m1320 -413 c116 -41 182 -82 266 -166 65 -64
89 -97 122 -165 42 -88 72 -206 72 -285 0 -79 -30 -197 -72 -285 -73 -151
-225 -280 -398 -336 -48 -15 -104 -18 -436 -22 l-380 -3 -150 -125 -149 -124
-3 124 -3 123 -97 6 c-180 11 -302 66 -427 192 -203 203 -248 474 -123 735 84
176 269 314 468 350 25 5 315 7 645 6 599 -2 600 -2 665 -25z"/>
<path d="M1110 1937 c-51 -17 -104 -75 -120 -132 -53 -188 182 -323 320 -185
69 69 76 176 15 256 -44 58 -141 86 -215 61z"/>
<path d="M1710 1937 c-51 -17 -104 -75 -120 -132 -53 -188 182 -323 320 -185
69 69 76 176 15 256 -44 58 -141 86 -215 61z"/>
<path d="M2310 1937 c-51 -17 -104 -75 -120 -132 -53 -188 182 -323 320 -185
69 69 76 176 15 256 -44 58 -141 86 -215 61z"/>
</g>
</svg>
