<svg width="98" height="60" viewBox="0 0 98 60" fill="none" xmlns="http://www.w3.org/2000/svg">
<g clip-path="url(#clip0_6_179)">
<path d="M48.3762 59.827C48.045 59.827 47.7358 59.7387 47.4485 59.5841L44.5107 57.8395C44.0688 57.5965 44.2897 57.5082 44.4224 57.464C45.0187 57.2653 45.1292 57.221 45.7476 56.8679C45.814 56.8235 45.9025 56.8457 45.9686 56.8898L48.2218 58.237C48.3101 58.2811 48.4206 58.2811 48.4867 58.237L57.3005 53.1354C57.3888 53.0913 57.4332 53.0028 57.4332 52.8926V42.7117C57.4332 42.601 57.3888 42.513 57.3005 42.4686L48.4867 37.3893C48.3984 37.3449 48.2879 37.3449 48.2218 37.3893L39.408 42.4686C39.3197 42.5128 39.2753 42.6232 39.2753 42.7115V52.8924C39.2753 52.9809 39.3197 53.0911 39.408 53.1354L41.8158 54.5267C43.1191 55.1892 43.9363 54.4163 43.9363 53.6433V43.5949C43.9363 43.4624 44.0468 43.3298 44.2014 43.3298H45.3279C45.4606 43.3298 45.593 43.4403 45.593 43.5949V53.6433C45.593 55.3879 44.6431 56.4039 42.9864 56.4039C42.4784 56.4039 42.0809 56.4039 40.9542 55.8517L38.6348 54.5267C38.0605 54.1956 37.7071 53.577 37.7071 52.9146V42.7337C37.7071 42.0712 38.0605 41.4526 38.6348 41.1215L47.4485 36.02C48.0008 35.7108 48.752 35.7108 49.3041 36.02L58.1178 41.1215C58.6921 41.4526 59.0457 42.0712 59.0457 42.7337V52.9146C59.0457 53.577 58.6921 54.1956 58.1178 54.5267L49.3041 59.6282C49.0169 59.7609 48.6855 59.827 48.3762 59.827ZM51.0933 52.8263C47.2277 52.8263 46.4325 51.0595 46.4325 49.5578C46.4325 49.4252 46.5429 49.2928 46.6975 49.2928H47.8462C47.9787 49.2928 48.0891 49.381 48.0891 49.5137C48.2659 50.684 48.774 51.2582 51.1155 51.2582C52.9709 51.2582 53.7664 50.8386 53.7664 49.8448C53.7664 49.2706 53.5453 48.8512 50.6516 48.564C48.2438 48.3209 46.7417 47.791 46.7417 45.8697C46.7417 44.0808 48.244 43.0207 50.7621 43.0207C53.5894 43.0207 54.9812 43.9925 55.158 46.1124C55.158 46.1789 55.1358 46.245 55.0917 46.3113C55.0473 46.3554 54.9812 46.3996 54.9149 46.3996H53.7662C53.6557 46.3996 53.5453 46.3113 53.5233 46.2009C53.2582 44.9863 52.5734 44.5887 50.7621 44.5887C48.7298 44.5887 48.4867 45.2955 48.4867 45.8254C48.4867 46.4659 48.774 46.6646 51.513 47.0179C54.2301 47.3714 55.5114 47.8793 55.5114 49.7785C55.4892 51.722 53.8988 52.8263 51.0933 52.8263Z" fill="#539E43"/>
<path d="M21.0294 20.0087C21.0294 19.6113 20.8084 19.2356 20.455 19.0369L11.089 13.6483C10.9342 13.5599 10.7576 13.5157 10.581 13.4935H10.4925C10.3159 13.4935 10.1391 13.5599 9.98449 13.6483L0.618489 19.0369C0.264903 19.2356 0.0441513 19.6111 0.0441513 20.0087L0.0663221 34.496C0.0663221 34.6948 0.176794 34.8935 0.353395 34.982C0.530188 35.0924 0.75094 35.0924 0.905753 34.982L6.47233 31.8018C6.82573 31.603 7.04667 31.2276 7.04667 30.8301V24.0501C7.04667 23.6527 7.26742 23.2772 7.62101 23.0785L9.98449 21.7092C10.1613 21.5987 10.3601 21.5544 10.5588 21.5544C10.7576 21.5544 10.9564 21.5987 11.1112 21.7092L13.4747 23.0785C13.8282 23.2772 14.049 23.6525 14.049 24.0501V30.8301C14.049 31.2276 14.2699 31.603 14.6233 31.8018L20.1899 34.982C20.2759 35.0361 20.3755 35.0648 20.4771 35.0648C20.5787 35.0648 20.6783 35.0361 20.7643 34.982C20.941 34.8935 21.0515 34.6948 21.0515 34.496L21.0294 20.0087ZM66.048 0.0663535C65.8714 -0.0221178 65.6505 -0.0221178 65.4957 0.0663535C65.3191 0.176799 65.2086 0.35336 65.2086 0.552086V14.9072C65.2086 15.0396 65.1425 15.172 65.0098 15.2605C64.8774 15.3266 64.7447 15.3266 64.6123 15.2605L62.2708 13.9134C62.0991 13.8156 61.905 13.7643 61.7074 13.7643C61.5099 13.7643 61.3158 13.8156 61.1441 13.9134L51.7781 19.3241C51.4247 19.5228 51.2038 19.8983 51.2038 20.2957V31.0949C51.2038 31.4924 51.4247 31.8681 51.7781 32.0668L61.1441 37.4775C61.3158 37.5752 61.5099 37.6266 61.7074 37.6266C61.905 37.6266 62.0991 37.5752 62.2708 37.4775L71.6368 32.0668C71.9902 31.8681 72.2111 31.4926 72.2111 31.0949V4.17406C72.2111 3.75444 71.9902 3.37916 71.6368 3.18024L66.048 0.0663535ZM65.1866 27.5395C65.1866 27.6499 65.1425 27.7382 65.054 27.7823L61.8511 29.6374C61.8063 29.6592 61.7572 29.6705 61.7074 29.6705C61.6577 29.6705 61.6086 29.6592 61.5638 29.6374L58.3609 27.7823C58.2724 27.7382 58.2283 27.6278 58.2283 27.5395V23.8292C58.2283 23.7188 58.2724 23.6305 58.3609 23.5863L61.5638 21.7311C61.6086 21.7093 61.6577 21.698 61.7074 21.698C61.7572 21.698 61.8063 21.7093 61.8511 21.7311L65.054 23.5863C65.1425 23.6303 65.1866 23.7409 65.1866 23.8292V27.5395ZM97.2165 23.7409C97.5701 23.5422 97.7689 23.1667 97.7689 22.7691V20.1411C97.7689 19.7437 97.5479 19.3682 97.2165 19.1695L87.9168 13.7809C87.7452 13.6832 87.551 13.6318 87.3535 13.6318C87.1559 13.6318 86.9618 13.6832 86.7901 13.7809L77.4241 19.1914C77.0705 19.3902 76.8498 19.7656 76.8498 20.1631V30.9625C76.8498 31.36 77.0707 31.7355 77.4241 31.9342L86.7238 37.2344C87.0774 37.4332 87.4971 37.4332 87.8285 37.2344L93.4612 34.0988C93.638 34.0103 93.7485 33.8116 93.7485 33.6128C93.7485 33.4141 93.638 33.2154 93.4612 33.1269L84.0511 27.7162C83.8743 27.6058 83.7638 27.4292 83.7638 27.2305V23.8516C83.7638 23.6528 83.8743 23.4541 84.0511 23.3657L86.9889 21.6872C87.0749 21.6331 87.1744 21.6044 87.2761 21.6044C87.3777 21.6044 87.4772 21.6331 87.5632 21.6872L90.5012 23.3657C90.678 23.4761 90.7883 23.6527 90.7883 23.8516V26.5017C90.7883 26.7004 90.8988 26.8992 91.0756 26.9874C91.1616 27.0416 91.2611 27.0703 91.3628 27.0703C91.4644 27.0703 91.5639 27.0416 91.6499 26.9874L97.2165 23.7409Z" fill="#333333"/>
<path d="M87.2098 23.2328C87.2426 23.2112 87.281 23.1997 87.3203 23.1997C87.3596 23.1997 87.398 23.2112 87.4308 23.2328L89.2201 24.2708C89.2862 24.3151 89.3304 24.3813 89.3304 24.4695V26.5456C89.3304 26.6339 89.2864 26.7002 89.2201 26.7444L87.4308 27.7823C87.398 27.8039 87.3596 27.8155 87.3203 27.8155C87.281 27.8155 87.2426 27.8039 87.2098 27.7823L85.4207 26.7444C85.3544 26.7002 85.3102 26.6339 85.3102 26.5456V24.4697C85.3102 24.3813 85.3542 24.3149 85.4207 24.271L87.2098 23.2328Z" fill="#539E43"/>
<path d="M36.6909 13.8251C36.5192 13.7274 36.3251 13.676 36.1276 13.676C35.9301 13.676 35.736 13.7274 35.5644 13.8251L26.2647 19.1913C25.9111 19.39 25.7123 19.7655 25.7123 20.1629V30.9182C25.7123 31.3156 25.9333 31.6911 26.2647 31.8899L35.5644 37.2564C35.736 37.3541 35.9301 37.4055 36.1276 37.4055C36.3251 37.4055 36.5192 37.3541 36.6909 37.2564L45.9908 31.8899C46.3442 31.6911 46.5431 31.3156 46.5431 30.9182V20.1631C46.5431 19.7656 46.322 19.3902 45.9908 19.1914L36.6909 13.8251Z" fill="url(#paint0_linear_6_179)"/>
<rect width="137" height="84" fill="black" fill-opacity="0.2"/>
</g>
<defs>
<linearGradient id="paint0_linear_6_179" x1="1446.12" y1="428.633" x2="427.123" y2="2030.15" gradientUnits="userSpaceOnUse">
<stop stop-color="#41873F"/>
<stop offset="0.3288" stop-color="#418B3D"/>
<stop offset="0.6352" stop-color="#419637"/>
<stop offset="0.9319" stop-color="#3FA92D"/>
<stop offset="1" stop-color="#3FAE2A"/>
</linearGradient>
<clipPath id="clip0_6_179">
<rect width="97.8571" height="60" fill="white"/>
</clipPath>
</defs>
</svg>
