<svg width="77" height="79" viewBox="0 0 77 79" fill="none" xmlns="http://www.w3.org/2000/svg">
<g clip-path="url(#clip0_53_2)">
<path d="M76.3092 47.306C75.8499 45.9148 74.6466 44.9459 73.0905 44.7133C72.3568 44.6038 71.5165 44.6505 70.5221 44.8555C68.7889 45.2131 67.5031 45.3492 66.5647 45.3756C70.1068 39.3952 72.987 32.5755 74.6451 26.1558C77.3263 15.7754 75.8935 11.0465 74.2193 8.90749C69.7884 3.24583 63.3239 0.204326 55.525 0.111262C51.3646 0.0603908 47.7124 0.881811 45.8071 1.47252C44.0332 1.15951 42.1258 0.984751 40.1245 0.952432C36.3729 0.892584 33.0582 1.71041 30.2259 3.39126C28.6578 2.861 26.1412 2.11349 23.235 1.6365C16.3997 0.514341 10.8906 1.38873 6.86101 4.23542C1.98156 7.68209 -0.280412 13.6705 0.137929 22.0344C0.270792 24.6898 1.75623 32.7694 4.09511 40.4318C5.43931 44.836 6.87268 48.4934 8.35543 51.3033C10.4582 55.2877 12.7082 57.634 15.2341 58.4767C16.6498 58.9483 19.2221 59.2787 21.9276 57.0254C22.2705 57.4407 22.728 57.8534 23.3352 58.2367C24.1064 58.723 25.0493 59.1204 25.991 59.3559C29.3847 60.2042 32.5635 59.9921 35.2756 58.8029C35.2923 59.2852 35.3052 59.7461 35.316 60.1441C35.3339 60.7895 35.3519 61.4224 35.3755 62.0143C35.5362 66.0164 35.8085 69.1282 36.6153 71.3055C36.6596 71.4252 36.7191 71.6078 36.782 71.8014C37.1844 73.0336 37.8574 75.0966 39.5697 76.7122C41.3427 78.3859 43.4874 78.8991 45.4516 78.8991C46.4367 78.8991 47.3766 78.7698 48.201 78.5933C51.1396 77.9634 54.4771 77.004 56.8913 73.5663C59.174 70.3165 60.2836 65.4218 60.4844 57.7094C60.5104 57.4913 60.5343 57.283 60.5574 57.0846L60.6053 56.6771L61.143 56.7243L61.2815 56.7336C64.2746 56.8701 67.9343 56.2354 70.1819 55.1913C71.9579 54.3672 77.6492 51.3625 76.3092 47.306Z" fill="black"/>
<path d="M71.1916 48.0949C62.2921 49.9307 61.6802 46.9177 61.6802 46.9177C71.0764 32.9751 75.0045 15.277 71.615 10.9454C62.3672 -0.870143 46.3593 4.71791 46.092 4.86274L46.0061 4.8783C44.2478 4.51323 42.2803 4.29598 40.0686 4.25977C36.042 4.19394 32.9873 5.3155 30.6694 7.07325C30.6694 7.07325 2.11266 -4.69117 3.441 21.869C3.72349 27.5193 11.5397 64.6227 20.8623 53.4157C24.2698 49.3176 27.5623 45.8527 27.5623 45.8527C29.1974 46.9389 31.155 47.4931 33.2072 47.2941L33.3667 47.1589C33.3171 47.6676 33.3398 48.1652 33.4305 48.7544C31.0288 51.4377 31.7347 51.9087 26.9336 52.8971C22.0754 53.8984 24.9293 55.6807 26.7927 56.1469C29.0517 56.7116 34.2776 57.5118 37.8087 52.5686L37.6681 53.1326C38.6089 53.8864 39.2696 58.0351 39.1589 61.7963C39.0482 65.5572 38.9742 68.1393 39.7155 70.1562C40.4573 72.1731 41.1961 76.7111 47.5077 75.3589C52.7813 74.2286 55.5143 71.2999 55.8946 66.4145C56.1642 62.9415 56.775 63.455 56.8133 60.3498L57.3031 58.8799C57.8678 54.1719 57.3929 52.653 60.6418 53.3595L61.4318 53.4289C63.8227 53.5375 66.9528 53.0441 68.7899 52.1903C72.7453 50.3548 75.0913 47.2896 71.191 48.0949H71.1916Z" fill="#336791"/>
<path d="M32.3409 24.3958C31.5389 24.2842 30.8127 24.3874 30.4452 24.6657C30.2387 24.8222 30.1747 25.0035 30.1573 25.1283C30.1112 25.459 30.3429 25.8247 30.4853 26.0132C30.8881 26.547 31.4764 26.9139 32.0587 26.9947C32.1431 27.0067 32.2272 27.0121 32.3107 27.0121C33.2817 27.0121 34.1648 26.2559 34.2426 25.6978C34.3398 24.9988 33.3251 24.5325 32.3409 24.3958ZM58.9088 24.4179C58.8322 23.87 57.8573 23.7138 56.932 23.8425C56.008 23.9712 55.1121 24.3883 55.1869 24.9374C55.2467 25.3644 56.0179 26.0934 56.9306 26.0934C57.0078 26.0934 57.0856 26.0883 57.164 26.0772C57.7732 25.9928 58.2203 25.6059 58.4327 25.383C58.7559 25.043 58.9433 24.6642 58.9088 24.4179Z" fill="white"/>
<path d="M74.1529 47.8863C73.8135 46.8602 72.7213 46.5301 70.9067 46.9048C65.5188 48.0168 63.5893 47.2465 62.9558 46.78C67.1437 40.4002 70.5889 32.6881 72.4475 25.4928C73.3278 22.0844 73.8141 18.919 73.8539 16.339C73.8979 13.5072 73.4155 11.4263 72.4208 10.1551C68.4104 5.0306 62.5243 2.28176 55.3993 2.20635C50.501 2.15129 46.3625 3.40481 45.5602 3.75732C43.8707 3.33719 42.0289 3.07924 40.0237 3.04632C36.3466 2.98677 33.168 3.86714 30.5365 5.6617C29.3934 5.23618 26.4392 4.22205 22.8265 3.64002C16.5807 2.63456 11.6175 3.39644 8.07563 5.90558C3.84943 8.8998 1.89837 14.2521 2.27631 21.8133C2.40349 24.3572 3.85302 32.183 6.14043 39.6775C9.15141 49.5417 12.4245 55.1259 15.8682 56.2747C16.2713 56.409 16.736 56.503 17.2486 56.503C18.5048 56.503 20.045 55.9368 21.6475 54.0103C23.602 51.6656 25.6238 49.3778 27.7104 47.1499C29.0642 47.8764 30.5514 48.2822 32.0725 48.3229C32.0755 48.3627 32.0794 48.4025 32.083 48.442C31.8211 48.7542 31.5647 49.071 31.3139 49.3921C30.26 50.73 30.0406 51.0086 26.6481 51.707C25.6831 51.9063 23.12 52.4345 23.0823 54.2311C23.0416 56.1942 26.1122 57.0186 26.462 57.106C27.6811 57.4112 28.8556 57.5617 29.9757 57.5617C32.6997 57.5617 35.0969 56.6664 37.0127 54.9341C36.9537 61.9321 37.2455 68.8279 38.0858 70.9289C38.774 72.6489 40.4552 76.8524 45.7655 76.8521C46.5447 76.8521 47.4024 76.7614 48.3459 76.5591C53.8882 75.3711 56.295 72.9215 57.2259 67.5211C57.7241 64.6349 58.5791 57.743 58.9813 54.0462C59.8299 54.311 60.9224 54.4322 62.1036 54.4319C64.5669 54.4319 67.4094 53.9086 69.192 53.0811C71.1945 52.1511 74.8082 49.8691 74.1529 47.8863ZM60.9545 22.9055C60.9362 23.9969 60.786 24.9877 60.6268 26.0219C60.4553 27.1341 60.2782 28.2841 60.2336 29.6801C60.1896 31.0387 60.3593 32.4511 60.5233 33.8171C60.8548 36.5761 61.1951 39.4165 59.8781 42.2192C59.6593 41.8316 59.4645 41.431 59.2946 41.0196C59.1309 40.6228 58.7754 39.9854 58.2831 39.1032C56.3683 35.6691 51.8841 27.6273 54.1796 24.3458C54.8634 23.3691 56.5987 22.3648 60.9545 22.9055ZM55.6746 4.41625C62.0587 4.5572 67.1087 6.94545 70.684 11.5143C73.4263 15.0187 70.4066 30.9644 61.6649 44.7209C61.577 44.6091 61.4886 44.4977 61.3997 44.3867L61.289 44.2484C63.548 40.5178 63.1063 36.8266 62.7131 33.5541C62.5515 32.2111 62.3989 30.9426 62.4378 29.751C62.4779 28.4882 62.6449 27.405 62.8065 26.3576C63.0049 25.067 63.2069 23.7315 63.1512 22.1571C63.1928 21.992 63.2096 21.7969 63.1877 21.5652C63.0456 20.0556 61.3219 15.5373 57.8088 11.4479C55.8871 9.21102 53.0847 6.70785 49.2583 5.01953C50.9041 4.67839 53.1547 4.3603 55.6746 4.41625ZM19.9517 52.6003C18.1861 54.7231 16.967 54.3161 16.566 54.1827C13.9537 53.3113 10.9223 47.7896 8.24979 39.0338C5.93725 31.4576 4.58587 23.8392 4.47874 21.7029C4.14119 14.9466 5.77895 10.238 9.34681 7.70762C15.1533 3.59005 24.6997 6.05461 28.5357 7.30454C28.4807 7.359 28.4232 7.40987 28.3688 7.46523C22.0739 13.8223 22.2232 24.6836 22.2388 25.3477C22.2382 25.6038 22.2597 25.9665 22.289 26.4653C22.3974 28.2922 22.5991 31.6922 22.0604 35.5426C21.5601 39.1206 22.6631 42.6226 25.0861 45.1509C25.3347 45.4099 25.5961 45.6564 25.8692 45.8895C24.7907 47.0445 22.4468 49.5989 19.9517 52.6003ZM26.6783 43.6251C24.7255 41.5872 23.8385 38.7528 24.2446 35.8478C24.8132 31.7805 24.6034 28.238 24.4906 26.3349C24.4747 26.0685 24.4607 25.8351 24.4526 25.6511C25.3721 24.8357 29.6337 22.5524 32.6728 23.2488C34.0595 23.5663 34.9045 24.5107 35.2558 26.135C37.074 34.5446 35.4964 38.0496 34.2288 40.8664C33.9676 41.4466 33.7207 41.9951 33.51 42.5625L33.3467 43.0012C32.9331 44.1102 32.5483 45.1413 32.3098 46.1205C30.2336 46.1145 28.214 45.2275 26.6783 43.6248V43.6251ZM26.997 54.9664C26.3908 54.815 25.8455 54.5519 25.5257 54.3338C25.7929 54.2081 26.2684 54.0369 27.0931 53.867C31.0841 53.0455 31.7005 52.4656 33.0465 50.7566C33.355 50.3646 33.7048 49.9205 34.1893 49.3795L34.1899 49.3789C34.9114 48.571 35.2415 48.708 35.8399 48.9564C36.325 49.1569 36.7975 49.7649 36.989 50.434C37.0797 50.75 37.1814 51.3497 36.8484 51.8165C34.0367 55.7534 29.9395 55.7028 26.997 54.9664ZM47.8839 74.4028C43.0014 75.4489 41.2727 72.9577 40.1335 70.1098C39.3982 68.2713 39.0368 59.9805 39.2932 50.8246C39.2965 50.7028 39.2791 50.5852 39.2456 50.4744C39.2156 50.2558 39.17 50.0396 39.1092 49.8275C38.7279 48.4953 37.7988 47.3809 36.6841 46.9189C36.2412 46.7354 35.4285 46.3988 34.4518 46.6486C34.66 45.7904 35.0212 44.8212 35.4129 43.7717L35.5772 43.3303C35.7621 42.8327 35.9944 42.3171 36.2397 41.7713C37.5663 38.8243 39.383 34.7879 37.4113 25.669C36.6727 22.2535 34.2064 20.5855 30.4676 20.973C28.2263 21.2049 26.1756 22.1093 25.1528 22.6278C24.9329 22.7392 24.7318 22.8469 24.5438 22.9516C24.8293 19.5103 25.9078 13.079 29.9422 9.00992C32.4824 6.44841 35.8654 5.18321 39.9871 5.25144C48.1086 5.3843 53.3166 9.55215 56.2558 13.0255C58.7885 16.0182 60.16 19.033 60.7073 20.6591C56.5912 20.2405 53.7918 21.0529 52.3728 23.0818C49.2855 27.495 54.0617 36.0605 56.3572 40.1772C56.7782 40.9316 57.1415 41.5837 57.2558 41.8608C58.0033 43.6724 58.9711 44.8819 59.6776 45.7647C59.8942 46.0352 60.1043 46.2976 60.2641 46.5268C59.0175 46.8862 56.7782 47.7166 56.9823 51.8674C56.8177 53.9501 55.6474 63.7013 55.0528 67.1464C54.2679 71.6979 52.593 73.3931 47.8839 74.4031V74.4028ZM68.2635 51.081C66.9887 51.6726 64.8554 52.1164 62.8289 52.2118C60.5906 52.3166 59.4511 51.9611 59.1829 51.7423C59.0573 49.1557 60.0199 48.8855 61.0388 48.5994C61.1989 48.5545 61.3551 48.5105 61.506 48.4579C61.5996 48.5342 61.7023 48.6099 61.8148 48.6841C63.6138 49.8715 66.8226 49.9996 71.3528 49.0644L71.4025 49.0545C70.7915 49.6258 69.7459 50.3925 68.2635 51.081Z" fill="white"/>
</g>
<defs>
<clipPath id="clip0_53_2">
<rect width="76.6061" height="79" fill="white"/>
</clipPath>
</defs>
</svg>
