<svg width="42" height="46" viewBox="0 0 42 46" fill="none" xmlns="http://www.w3.org/2000/svg">
<path d="M21.223 3.17353C12.07 3.17353 12.6488 7.46941 12.6488 7.46941V11.9332H21.3532V13.3325H9.18226C9.18226 13.3325 3.32306 12.5489 3.32306 22.6309C3.32306 32.713 8.49643 32.303 8.49643 32.303H11.4834V27.5999C11.4834 27.5999 11.3158 21.9845 16.5111 21.9845H25.2284C25.2284 21.9845 30.091 22.0684 30.091 16.8742V8.35098C30.091 8.35098 30.8284 3.15674 21.2707 3.15674L21.223 3.17353ZM16.4118 6.16386C16.7213 6.15538 17.0261 6.24671 17.2877 6.42628C17.5494 6.60585 17.7561 6.8656 17.8817 7.17269C18.0073 7.47977 18.0462 7.8204 17.9935 8.15148C17.9407 8.48257 17.7987 8.78925 17.5854 9.03273C17.3721 9.27621 17.0971 9.44556 16.7951 9.51936C16.4931 9.59316 16.1777 9.5681 15.8888 9.44734C15.6 9.32659 15.3506 9.11556 15.1722 8.84095C14.9939 8.56635 14.8945 8.24049 14.8868 7.9046V7.87661C14.8868 7.42607 15.0517 6.99399 15.3452 6.67541C15.6387 6.35683 16.0367 6.17785 16.4518 6.17785L16.4118 6.16386Z" fill="url(#paint0_linear_6_343)"/>
<path d="M21.4808 42.0883C30.6338 42.0883 30.055 37.7784 30.055 37.7784V33.3286H21.3519V31.9293H33.5602C33.5602 31.9293 39.4194 32.6402 39.4194 22.6169C39.4194 12.5936 34.246 12.9449 34.246 12.9449H31.2203V17.5864C31.2203 17.5864 31.3879 23.2018 26.1926 23.2018H17.4715C17.4715 23.2018 12.605 23.1221 12.605 28.3163V36.8969C12.605 36.8969 11.8676 42.0911 21.4254 42.0911H21.4769L21.4808 42.0883ZM26.2919 39.084C25.9825 39.0925 25.6777 39.0011 25.416 38.8216C25.1544 38.642 24.9477 38.3822 24.8221 38.0752C24.6965 37.7681 24.6576 37.4275 24.7103 37.0964C24.763 36.7653 24.905 36.4586 25.1183 36.2151C25.3317 35.9716 25.6067 35.8023 25.9087 35.7285C26.2107 35.6547 26.526 35.6798 26.8149 35.8005C27.1038 35.9213 27.3532 36.1323 27.5315 36.4069C27.7099 36.6815 27.8092 37.0074 27.817 37.3433V37.3852C27.817 37.8358 27.6521 38.2679 27.3586 38.5864C27.0651 38.905 26.667 39.084 26.2519 39.084H26.2906H26.2919Z" fill="url(#paint1_linear_6_343)"/>
<defs>
<linearGradient id="paint0_linear_6_343" x1="6.89035" y1="6.98371" x2="25.4168" y2="24.013" gradientUnits="userSpaceOnUse">
<stop stop-color="#387EB8"/>
<stop offset="1" stop-color="#366994"/>
</linearGradient>
<linearGradient id="paint1_linear_6_343" x1="17.0235" y1="19.0676" x2="37.9629" y2="35.909" gradientUnits="userSpaceOnUse">
<stop stop-color="#FFE052"/>
<stop offset="1" stop-color="#FFC331"/>
</linearGradient>
</defs>
</svg>
