<svg width="34" height="34" viewBox="0 0 34 34" fill="none" xmlns="http://www.w3.org/2000/svg">
<path d="M16.7578 19.5814C18.1701 19.5814 19.3151 18.4364 19.3151 17.0241C19.3151 15.6117 18.1701 14.4668 16.7578 14.4668C15.3454 14.4668 14.2005 15.6117 14.2005 17.0241C14.2005 18.4364 15.3454 19.5814 16.7578 19.5814Z" fill="#00D8FF"/>
<path d="M16.7578 22.8874C13.6841 22.9618 10.6181 22.5474 7.67433 21.6599C6.31449 21.2288 5.04619 20.5498 3.93353 19.657C3.50895 19.3521 3.15537 18.9589 2.89706 18.5044C2.63874 18.0499 2.4818 17.5449 2.43701 17.0241C2.43701 15.3332 4.29462 13.6761 7.40632 12.5918C10.4288 11.631 13.5867 11.1654 16.7578 11.2129C19.8866 11.1692 23.0022 11.6264 25.9865 12.5672C27.2961 12.9847 28.5214 13.631 29.6056 14.476C30.0229 14.7667 30.3712 15.1457 30.6257 15.5861C30.8803 16.0264 31.0349 16.5173 31.0786 17.0241C31.0786 18.7814 29.0021 20.5623 25.6571 21.6691C22.7704 22.5277 19.7691 22.9386 16.7578 22.8874ZM16.7578 12.4363C13.724 12.3957 10.703 12.8384 7.80833 13.7477C4.94417 14.7471 3.66042 16.1137 3.66042 17.021C3.66042 17.9703 5.04033 19.4627 8.07019 20.4989C10.8863 21.3437 13.8186 21.7369 16.7578 21.664C19.6387 21.7155 22.5106 21.3257 25.2736 20.5081C28.419 19.4658 29.8511 17.9713 29.8511 17.0241C29.7995 16.699 29.681 16.3882 29.5032 16.1112C29.3254 15.8343 29.092 15.5972 28.8179 15.415C27.848 14.6654 26.7534 14.0926 25.5845 13.7231C22.7296 12.8268 19.7498 12.3924 16.7578 12.4363Z" fill="#00D8FF"/>
<path d="M10.9476 29.7788C10.4705 29.7898 9.9989 29.674 9.58103 29.4433C8.11622 28.5984 7.60886 26.1618 8.22363 22.9243C8.90146 19.826 10.0759 16.8577 11.7015 14.1344C13.2264 11.4023 15.1786 8.93174 17.4841 6.81645C18.5 5.89041 19.6719 5.1517 20.9456 4.63457C21.4063 4.41868 21.9088 4.30676 22.4176 4.30676C22.9263 4.30676 23.4289 4.41868 23.8895 4.63457C25.4127 5.51223 25.917 8.20045 25.206 11.6507C24.5073 14.5809 23.3633 17.3867 21.8141 19.9701C20.3428 22.6699 18.4521 25.1189 16.2126 27.2256C15.1598 28.188 13.938 28.9471 12.6089 29.4648C12.0768 29.6623 11.5151 29.7684 10.9476 29.7788ZM12.7613 14.742C11.2106 17.3497 10.085 20.1877 9.42657 23.1493C8.8609 26.1311 9.40407 27.9243 10.1938 28.3805C11.0121 28.8541 12.9986 28.405 15.4106 26.2978C17.5485 24.2796 19.3532 21.9353 20.7574 19.3522C22.2416 16.8824 23.3389 14.2 24.0113 11.3981C24.6803 8.15033 24.1023 6.16178 23.2819 5.6892C22.9745 5.57139 22.6459 5.51865 22.317 5.53432C21.9881 5.54999 21.666 5.63373 21.3711 5.78024C20.2374 6.24806 19.1951 6.91222 18.2922 7.74218C16.0895 9.76836 14.2247 12.1335 12.7684 14.7481L12.7613 14.742Z" fill="#00D8FF"/>
<path d="M22.5649 29.792C21.1788 29.792 19.4184 28.9533 17.5853 27.3769C15.2395 25.2424 13.2543 22.7425 11.7066 19.9741C10.1014 17.2883 8.93626 14.363 8.25534 11.309C7.96003 9.96542 7.90531 8.58009 8.09372 7.21737C8.13728 6.71186 8.29121 6.22205 8.54465 5.7825C8.7981 5.34294 9.14489 4.96434 9.56058 4.67339C11.0816 3.79266 13.6625 4.69794 16.2965 7.03632C18.4861 9.10484 20.3455 11.4969 21.81 14.1292C23.4142 16.7523 24.5916 19.6136 25.2981 22.6061C25.6061 23.999 25.6536 25.4369 25.4382 26.8471C25.387 27.3671 25.2239 27.87 24.9601 28.3211C24.6963 28.7722 24.3381 29.1609 23.91 29.4606C23.499 29.6884 23.0347 29.8028 22.5649 29.792ZM12.7654 19.3583C14.2501 22.004 16.1464 24.3965 18.3832 26.4461C20.6837 28.4254 22.5086 28.851 23.2932 28.3896C24.1115 27.914 24.715 25.9725 24.0931 22.8311C23.4117 19.9741 22.2824 17.2429 20.7472 14.7389C19.3497 12.2195 17.5748 9.92898 15.4843 7.94671C13.0047 5.7454 10.9937 5.25338 10.1743 5.72801C9.91895 5.93554 9.70938 6.19377 9.55884 6.48639C9.40831 6.779 9.32008 7.09966 9.29973 7.42809C9.1371 8.6434 9.19008 9.87787 9.45624 11.0748C10.1112 13.9953 11.2287 16.7925 12.7664 19.3604L12.7654 19.3583Z" fill="#00D8FF"/>
</svg>
