<svg width="1156" height="216" viewBox="0 0 1156 216" fill="none" xmlns="http://www.w3.org/2000/svg">
<rect width="1156" height="216" fill="#070707"/>
<g clip-path="url(#clip0_27_6)">
<path d="M64.3903 140.427C63.6733 140.181 62.9503 139.953 62.2218 139.744C62.3442 139.244 62.4568 138.75 62.5568 138.265C64.1984 130.296 63.1253 123.876 59.4597 121.763C55.9453 119.736 50.1976 121.849 44.3929 126.901C43.8208 127.4 43.2614 127.913 42.7153 128.44C42.3496 128.089 41.9776 127.746 41.5992 127.409C35.5155 122.008 29.4176 119.731 25.7561 121.851C22.2447 123.883 21.205 129.918 22.6829 137.47C22.8299 138.218 22.9959 138.963 23.1808 139.702C22.3176 139.947 21.4847 140.208 20.6876 140.486C13.555 142.973 9 146.87 9 150.913C9 155.088 13.89 159.275 21.3189 161.814C21.9212 162.019 22.5285 162.209 23.1403 162.384C22.9416 163.181 22.7652 163.983 22.6113 164.789C21.2024 172.21 22.3026 178.102 25.8045 180.122C29.4213 182.208 35.4918 180.064 41.4026 174.897C41.8819 174.477 42.3507 174.045 42.8084 173.602C43.3999 174.172 44.0071 174.726 44.6295 175.263C50.3553 180.19 56.01 182.179 59.5084 180.154C63.1218 178.062 64.2963 171.732 62.7716 164.031C62.6515 163.428 62.5168 162.827 62.3676 162.23C62.7939 162.104 63.2124 161.974 63.6203 161.839C71.3434 159.28 76.3684 155.143 76.3684 150.913C76.3684 146.855 71.6663 142.932 64.3903 140.427ZM62.7153 159.107C62.3468 159.229 61.9689 159.347 61.5837 159.461C60.7311 156.762 59.5805 153.892 58.1724 150.927C59.5161 148.032 60.6224 145.198 61.4511 142.517C62.1403 142.716 62.8089 142.927 63.4537 143.148C69.6879 145.295 73.4905 148.468 73.4905 150.913C73.4905 153.517 69.3837 156.898 62.7153 159.107ZM59.9484 164.59C60.6226 167.995 60.7187 171.074 60.2721 173.481C59.8711 175.644 59.0642 177.086 58.0663 177.664C55.9434 178.893 51.4032 177.295 46.5066 173.082C45.9277 172.582 45.3629 172.067 44.8126 171.537C46.7111 169.461 48.6082 167.047 50.4597 164.367C53.7166 164.078 56.7934 163.605 59.5837 162.96C59.7181 163.501 59.8397 164.044 59.9484 164.59ZM31.9674 177.451C29.8932 178.184 28.2411 178.205 27.2424 177.629C25.1174 176.403 24.2339 171.672 25.4389 165.326C25.5822 164.576 25.7462 163.83 25.9308 163.089C28.6903 163.7 31.7447 164.139 35.0092 164.403C36.8734 167.026 38.8253 169.437 40.7924 171.548C40.3743 171.953 39.9464 172.347 39.5089 172.73C36.895 175.015 34.2758 176.636 31.9674 177.451ZM22.25 159.091C18.965 157.968 16.2521 156.509 14.3926 154.917C12.7216 153.486 11.8782 152.065 11.8782 150.913C11.8782 148.459 15.5353 145.33 21.635 143.204C22.3753 142.946 23.15 142.703 23.9539 142.474C24.7971 145.216 25.9029 148.083 27.2374 150.983C25.8855 153.925 24.7639 156.838 23.9126 159.612C23.3542 159.452 22.7999 159.278 22.25 159.091ZM25.5074 136.918C24.2413 130.447 25.0821 125.567 27.1982 124.342C29.4518 123.037 34.4355 124.897 39.6884 129.561C40.031 129.866 40.3679 130.177 40.6992 130.494C38.7418 132.596 36.8079 134.989 34.9603 137.596C31.7918 137.89 28.7589 138.362 25.9705 138.993C25.7987 138.306 25.6443 137.613 25.5074 136.918ZM54.5671 144.093C53.9085 142.956 53.2254 141.832 52.5184 140.724C54.6679 140.996 56.7274 141.357 58.6613 141.798C58.0808 143.659 57.3571 145.604 56.5053 147.599C55.8826 146.418 55.2364 145.249 54.5671 144.093ZM42.7166 132.551C44.0439 133.989 45.3734 135.595 46.6811 137.337C44.0284 137.212 41.3714 137.211 38.7187 137.335C40.0276 135.609 41.3684 134.006 42.7166 132.551ZM30.79 144.113C30.129 145.259 29.4949 146.421 28.8882 147.597C28.0503 145.609 27.3332 143.655 26.7476 141.767C28.6697 141.337 30.7195 140.986 32.8553 140.719C32.1404 141.834 31.4518 142.966 30.79 144.113ZM32.9166 161.311C30.71 161.065 28.6295 160.731 26.7079 160.313C27.3026 158.392 28.0355 156.396 28.8916 154.365C29.5007 155.542 30.1375 156.704 30.8013 157.851C31.4839 159.03 32.1908 160.185 32.9166 161.311ZM42.7961 169.477C41.4318 168.005 40.0713 166.377 38.7426 164.626C40.0326 164.677 41.3476 164.702 42.6842 164.702C44.0574 164.702 45.4147 164.672 46.7508 164.612C45.4389 166.395 44.1145 168.025 42.7961 169.477ZM56.5324 154.262C57.4329 156.314 58.1918 158.3 58.7945 160.188C56.8413 160.634 54.7324 160.993 52.5103 161.259C53.2223 160.131 53.9118 158.988 54.5784 157.832C55.2561 156.656 55.9076 155.466 56.5324 154.262ZM52.0855 156.394C51.0651 158.166 49.9872 159.905 48.8537 161.608C46.8004 161.754 44.7426 161.826 42.6842 161.825C40.5876 161.825 38.5484 161.759 36.5847 161.632C35.4216 159.933 34.3232 158.191 33.2918 156.409C32.2653 154.637 31.3067 152.826 30.4176 150.981C31.3045 149.136 32.2604 147.324 33.2834 145.55L33.2832 145.551C34.3058 143.777 35.3954 142.042 36.5497 140.35C38.5532 140.199 40.6076 140.12 42.6839 140.12C44.7697 140.12 46.8271 140.2 48.83 140.352C49.9727 142.041 51.0553 143.77 52.0761 145.535C53.1025 147.305 54.0711 149.108 54.9803 150.94C54.0804 152.792 53.1149 154.611 52.0855 156.394ZM58.0224 124.256C60.2782 125.557 61.1555 130.803 59.7382 137.684C59.6476 138.123 59.5461 138.57 59.4355 139.023C56.6403 138.378 53.6053 137.898 50.4276 137.6C48.5766 134.964 46.6584 132.567 44.7329 130.493C45.2375 130.006 45.7542 129.532 46.2824 129.072C51.2561 124.743 55.9045 123.034 58.0224 124.256ZM42.6842 144.897C46.0066 144.897 48.7 147.59 48.7 150.913C48.7 154.235 46.0066 156.928 42.6842 156.928C39.3618 156.928 36.6684 154.235 36.6684 150.913C36.6684 147.59 39.3618 144.897 42.6842 144.897Z" fill="#00D8FF"/>
<rect x="9" y="121" width="67.5" height="63" fill="black" fill-opacity="0.6"/>
</g>
<g clip-path="url(#clip1_27_6)">
<path fill-rule="evenodd" clip-rule="evenodd" d="M952.387 34.4532C951.561 34.4505 950.738 34.5556 949.939 34.7657V34.875H950.058C950.63 35.7407 951.268 36.5609 951.966 37.3282C952.446 38.2844 952.864 39.2375 953.341 40.1938L953.459 40.0719C953.902 39.7195 954.249 39.2605 954.467 38.7375C954.685 38.2146 954.767 37.6448 954.706 37.0813C954.445 36.6778 954.206 36.2605 953.989 35.8313C953.631 35.2344 952.854 34.9344 952.377 34.4563" fill="#5D87A1"/>
<path fill-rule="evenodd" clip-rule="evenodd" d="M1007.32 83.0561C1003.76 82.8057 1000.19 83.3223 996.853 84.5711C996.044 84.8962 994.753 84.8962 994.64 85.9222C995.074 86.3547 995.125 87.0528 995.505 87.6548C996.244 88.9083 997.193 90.0242 998.311 90.9534C999.439 91.8183 1000.57 92.6804 1001.77 93.4379C1003.87 94.7409 1006.24 95.4956 1008.29 96.7929C1009.48 97.5504 1010.66 98.5227 1011.85 99.3368C1012.45 99.7692 1012.82 100.467 1013.58 100.75V100.586C1013.35 99.9854 1013.08 99.4056 1012.76 98.8534C1012.22 98.3164 1011.68 97.8274 1011.13 97.2875C1009.55 95.1911 1007.66 93.3495 1005.52 91.8268C1003.8 90.634 1000.02 89.0003 999.32 87.0217L999.21 86.9115C1000.48 86.7318 1001.72 86.4405 1002.94 86.0409C1004.77 85.5548 1006.44 85.665 1008.33 85.193C1009.19 84.9753 1010.76 84.4355 1010.76 84.4355V83.5875C1009.79 82.6265 1009.1 81.3405 1008.09 80.4331C1005.33 78.0167 1002.38 75.8168 999.284 73.8531C997.629 72.7818 995.494 72.0922 993.732 71.1792C993.095 70.857 992.04 70.6987 991.654 70.1617C990.777 68.8727 990.044 67.4918 989.466 66.0435C987.888 62.9989 986.429 59.894 985.092 56.7358C984.305 54.6522 983.396 52.6164 982.371 50.639C977.427 42.2117 970.289 35.2906 961.723 30.6161C959.562 29.5674 957.264 28.829 954.897 28.4228C953.56 28.3662 952.229 28.2617 950.896 28.2108C950.035 27.6454 949.216 27.0181 948.445 26.334C945.394 24.3978 937.556 20.2372 935.311 25.7461C933.873 29.2255 937.449 32.6456 938.675 34.4121C939.709 35.6577 940.621 37.0009 941.396 38.4229C941.771 39.3331 941.878 40.2969 942.242 41.2494C943.025 43.6946 943.954 46.0902 945.025 48.4231C945.598 49.5761 946.258 50.6835 946.999 51.7357C947.43 52.3265 948.175 52.5837 948.335 53.5588C947.744 54.8329 947.33 56.1825 947.106 57.5696C946.174 60.5202 945.831 63.6259 946.096 66.7094C946.362 69.7929 947.231 72.7937 948.654 75.5405C949.5 76.8774 951.536 79.8198 954.257 78.6949C956.656 77.7338 956.123 74.6841 956.817 72.013C956.975 71.3657 956.87 70.9418 957.189 70.515V71.035C957.189 71.035 958.551 74.034 959.228 75.5574C961.068 78.3529 963.354 80.826 965.995 82.8781C967.039 83.7922 967.881 84.9159 968.465 86.1766V87.1461H969.669C969.644 86.7089 969.523 86.2827 969.315 85.8978C969.107 85.5128 968.817 85.1785 968.465 84.9188C967.478 83.9001 966.573 82.8037 965.761 81.6401C963.554 78.4891 961.607 75.1625 959.941 71.6936C959.095 69.9977 958.382 68.1379 957.705 66.4448C957.395 65.7919 957.395 64.8054 956.873 64.4663C955.91 65.6086 955.074 66.8531 954.381 68.1775C953.539 70.8543 953.049 73.6298 952.923 76.4337C952.717 76.4902 952.819 76.4337 952.717 76.5411C951.056 76.103 950.484 74.3025 949.858 72.7762C948.241 68.0688 948.078 62.9819 949.39 58.1801C949.751 57.0354 951.316 53.4288 950.69 52.3349C950.377 51.292 949.336 50.6956 948.767 49.8731C948.04 48.7665 947.414 47.5963 946.897 46.3767C945.659 43.3354 945.034 39.9436 943.686 36.8797C942.94 35.4061 942.071 33.9982 941.089 32.671C940.002 31.3452 939.044 29.9189 938.227 28.4115C937.967 27.8094 937.604 26.8258 938.018 26.1701C938.046 25.9879 938.133 25.8199 938.264 25.6913C938.396 25.5628 938.566 25.4808 938.748 25.4578C939.42 24.8586 941.345 25.6217 942.019 25.9496C943.831 26.6644 945.556 27.5812 947.162 28.6828C947.89 29.2312 949.604 30.619 949.604 30.619H950.112C951.837 30.9949 953.777 30.7235 955.401 31.2125C958.136 32.1263 960.746 33.3797 963.17 34.9435C970.314 39.5087 976.121 45.8924 980 53.4429C980.649 54.6838 980.922 55.8228 981.514 57.1174C982.642 59.7743 984.052 62.4877 985.18 65.0711C986.175 67.6271 987.462 70.059 989.015 72.3183C989.821 73.4489 993.061 74.0481 994.519 74.6417C995.785 75.0807 997.027 75.5854 998.241 76.1538C1000.08 77.2844 1001.91 78.5874 1003.63 79.8283C1004.49 80.4784 1007.19 81.8294 1007.36 82.912" fill="#00758F"/>
<rect x="925" y="13" width="99.7582" height="105" fill="black" fill-opacity="0.2"/>
</g>
<g clip-path="url(#clip2_27_6)">
<path d="M534.502 79.7691C534.06 79.7691 533.648 79.6514 533.265 79.4453L529.348 77.1192C528.758 76.7951 529.053 76.6774 529.23 76.6186C530.025 76.3536 530.172 76.2945 530.997 75.8237C531.085 75.7645 531.203 75.7941 531.291 75.853L534.296 77.6491C534.413 77.708 534.561 77.708 534.649 77.6491L546.401 70.8471C546.518 70.7882 546.578 70.6703 546.578 70.5233V56.9488C546.578 56.8012 546.518 56.6838 546.401 56.6247L534.649 49.8522C534.531 49.7931 534.384 49.7931 534.296 49.8522L522.544 56.6247C522.426 56.6835 522.367 56.8308 522.367 56.9485V70.523C522.367 70.641 522.426 70.788 522.544 70.8471L525.754 72.7021C527.492 73.5854 528.582 72.5549 528.582 71.5243V58.1263C528.582 57.9498 528.729 57.773 528.935 57.773H530.437C530.614 57.773 530.791 57.9202 530.791 58.1263V71.5243C530.791 73.8504 529.524 75.2051 527.315 75.2051C526.638 75.2051 526.108 75.2051 524.606 74.4688L521.513 72.7021C520.747 72.2606 520.276 71.4359 520.276 70.5526V56.9781C520.276 56.0947 520.747 55.27 521.513 54.8285L533.265 48.0265C534.001 47.6142 535.003 47.6142 535.739 48.0265L547.49 54.8285C548.256 55.27 548.728 56.0947 548.728 56.9781V70.5526C548.728 71.4359 548.256 72.2606 547.49 72.7021L535.739 79.5042C535.356 79.681 534.914 79.7691 534.502 79.7691ZM538.124 70.4349C532.97 70.4349 531.91 68.0792 531.91 66.0769C531.91 65.9001 532.057 65.7235 532.263 65.7235H533.795C533.972 65.7235 534.119 65.8412 534.119 66.0181C534.355 67.5786 535.032 68.3442 538.154 68.3442C540.628 68.3442 541.688 67.7847 541.688 66.4596C541.688 65.694 541.394 65.1347 537.535 64.7518C534.325 64.4277 532.322 63.7212 532.322 61.1595C532.322 58.7742 534.325 57.3607 537.683 57.3607C541.453 57.3607 543.308 58.6565 543.544 61.483C543.544 61.5717 543.514 61.6598 543.456 61.7482C543.396 61.8071 543.308 61.8659 543.22 61.8659H541.688C541.541 61.8659 541.394 61.7482 541.364 61.601C541.011 59.9816 540.098 59.4514 537.683 59.4514C534.973 59.4514 534.649 60.3938 534.649 61.1003C534.649 61.9544 535.032 62.2193 538.684 62.6904C542.307 63.1617 544.015 63.8389 544.015 66.3712C543.986 68.9625 541.865 70.4349 538.124 70.4349Z" fill="#539E43"/>
<path d="M498.039 26.6782C498.039 26.1482 497.745 25.6473 497.273 25.3824L484.785 18.1976C484.579 18.0797 484.343 18.0208 484.108 17.9913H483.99C483.755 17.9913 483.519 18.0797 483.313 18.1976L470.825 25.3824C470.353 25.6473 470.059 26.148 470.059 26.6782L470.088 45.9946C470.088 46.2596 470.236 46.5245 470.471 46.6425C470.707 46.7897 471.001 46.7897 471.208 46.6425L478.63 42.4022C479.101 42.1373 479.396 41.6366 479.396 41.1067V32.0667C479.396 31.5368 479.69 31.0361 480.161 30.7711L483.313 28.9454C483.548 28.7982 483.813 28.739 484.078 28.739C484.343 28.739 484.608 28.7982 484.815 28.9454L487.966 30.7711C488.438 31.0361 488.732 31.5365 488.732 32.0667V41.1067C488.732 41.6366 489.027 42.1373 489.498 42.4022L496.92 46.6425C497.035 46.7147 497.167 46.753 497.303 46.753C497.438 46.753 497.571 46.7147 497.686 46.6425C497.921 46.5245 498.069 46.2596 498.069 45.9946L498.039 26.6782ZM558.064 0.0883493C557.829 -0.0296125 557.534 -0.0296125 557.328 0.0883493C557.092 0.23561 556.945 0.471024 556.945 0.735993V19.8761C556.945 20.0527 556.857 20.2292 556.68 20.3472C556.503 20.4354 556.326 20.4354 556.15 20.3472L553.028 18.551C552.799 18.4207 552.54 18.3522 552.277 18.3522C552.013 18.3522 551.754 18.4207 551.525 18.551L539.037 25.7653C538.566 26.0303 538.272 26.5309 538.272 27.0608V41.4598C538.272 41.9897 538.566 42.4906 539.037 42.7556L551.525 49.9699C551.754 50.1002 552.013 50.1687 552.277 50.1687C552.54 50.1687 552.799 50.1002 553.028 49.9699L565.516 42.7556C565.987 42.4906 566.281 41.99 566.281 41.4598V5.56529C566.281 5.0058 565.987 4.50542 565.516 4.2402L558.064 0.0883493ZM556.915 36.7192C556.915 36.8664 556.857 36.9841 556.739 37.043L552.468 39.5164C552.408 39.5455 552.343 39.5606 552.277 39.5606C552.21 39.5606 552.145 39.5455 552.085 39.5164L547.815 37.043C547.697 36.9841 547.638 36.8369 547.638 36.7192V31.7722C547.638 31.6249 547.697 31.5072 547.815 31.4483L552.085 28.9747C552.145 28.9456 552.21 28.9305 552.277 28.9305C552.343 28.9305 552.408 28.9456 552.468 28.9747L556.739 31.4483C556.857 31.5069 556.915 31.6545 556.915 31.7722V36.7192ZM599.622 31.6545C600.093 31.3895 600.358 30.8889 600.358 30.3587V26.8547C600.358 26.3248 600.064 25.8241 599.622 25.5592L587.222 18.3745C586.994 18.2442 586.735 18.1757 586.471 18.1757C586.208 18.1757 585.949 18.2442 585.72 18.3745L573.232 25.5885C572.761 25.8534 572.466 26.3541 572.466 26.884V41.2832C572.466 41.8132 572.761 42.3138 573.232 42.5788L585.632 49.6458C586.103 49.9108 586.663 49.9108 587.105 49.6458L594.615 45.4649C594.851 45.3469 594.998 45.082 594.998 44.817C594.998 44.552 594.851 44.2871 594.615 44.1691L582.068 36.9548C581.832 36.8076 581.685 36.5722 581.685 36.3072V31.802C581.685 31.537 581.832 31.272 582.068 31.1541L585.985 28.9161C586.1 28.844 586.233 28.8057 586.368 28.8057C586.504 28.8057 586.636 28.844 586.751 28.9161L590.668 31.1541C590.904 31.3013 591.051 31.5368 591.051 31.802V35.3355C591.051 35.6004 591.198 35.8654 591.434 35.9831C591.549 36.0553 591.681 36.0936 591.817 36.0936C591.952 36.0936 592.085 36.0553 592.2 35.9831L599.622 31.6545Z" fill="#333333"/>
<path d="M586.28 30.977C586.323 30.9482 586.375 30.9329 586.427 30.9329C586.479 30.9329 586.531 30.9482 586.574 30.977L588.96 32.361C589.048 32.4201 589.107 32.5083 589.107 32.626V35.3941C589.107 35.5118 589.048 35.6002 588.96 35.6591L586.574 37.043C586.531 37.0718 586.479 37.0872 586.427 37.0872C586.375 37.0872 586.323 37.0718 586.28 37.043L583.894 35.6591C583.806 35.6002 583.747 35.5118 583.747 35.3941V32.6262C583.747 32.5083 583.805 32.4198 583.894 32.3612L586.28 30.977Z" fill="#539E43"/>
<path d="M518.921 18.4334C518.692 18.3031 518.434 18.2346 518.17 18.2346C517.907 18.2346 517.648 18.3031 517.419 18.4334L505.02 25.5883C504.548 25.8532 504.283 26.3539 504.283 26.8838V41.2242C504.283 41.7541 504.578 42.2548 505.02 42.5197L517.419 49.6751C517.648 49.8054 517.907 49.8739 518.17 49.8739C518.434 49.8739 518.692 49.8054 518.921 49.6751L531.321 42.5197C531.792 42.2548 532.058 41.7541 532.058 41.2242V26.8841C532.058 26.3541 531.763 25.8535 531.321 25.5885L518.921 18.4334Z" fill="url(#paint0_linear_27_6)"/>
<rect x="470" width="137" height="84" fill="black" fill-opacity="0.2"/>
</g>
<g clip-path="url(#clip3_27_6)">
<path d="M791.982 193.388C793.209 195.874 795.112 197.965 797.474 199.418C799.835 200.872 802.559 201.63 805.332 201.605C810.939 201.605 814.522 198.801 814.522 194.93C814.522 190.291 810.84 188.646 804.672 185.945L801.287 184.494C791.523 180.334 785.034 175.122 785.034 164.106C785.034 153.955 792.769 146.232 804.854 146.232C808.776 145.948 812.695 146.825 816.12 148.756C819.546 150.687 822.327 153.584 824.115 157.087L813.577 163.853C812.887 162.117 811.685 160.633 810.131 159.596C808.577 158.56 806.745 158.021 804.877 158.052C804.063 157.97 803.241 158.058 802.463 158.312C801.685 158.565 800.969 158.978 800.36 159.524C799.75 160.07 799.261 160.737 798.924 161.482C798.586 162.227 798.408 163.035 798.4 163.853C798.4 167.914 800.915 169.555 806.704 172.07L810.089 173.517C821.588 178.448 828.077 183.474 828.077 194.775C828.077 206.959 818.508 213.634 805.652 213.634C800.645 213.952 795.652 212.815 791.277 210.359C786.901 207.903 783.33 204.234 780.993 199.794L791.982 193.388ZM744.182 194.574C746.31 198.346 748.243 201.533 752.882 201.533C757.326 201.533 760.134 199.794 760.134 193.032V147.023H773.666V193.221C773.666 207.232 765.449 213.61 753.459 213.61C749.224 213.839 745.019 212.781 741.396 210.575C737.774 208.368 734.905 205.117 733.166 201.249L744.182 194.574Z" fill="#F5DE19"/>
<rect x="733" y="146" width="95.1282" height="67.3077" fill="black" fill-opacity="0.2"/>
</g>
<path d="M306.256 200.06L300.462 137.077H364.154L358.352 200.05L332.269 207.055L306.256 200.06Z" fill="#1572B6"/>
<path d="M332.308 201.672L353.605 196.037L358.615 142.46H332.308V201.672Z" fill="#33A9DC"/>
<path d="M332.308 164.501H343.269L344.024 156.754H332.308V149.189H353.077L352.879 151.218L350.845 172.066H332.308V164.501V164.501Z" fill="white"/>
<path d="M332.308 184.387L332.273 184.396L323.837 182.125L323.298 176.103H315.692L316.754 187.958L332.271 192.252L332.308 192.243V184.387V184.387Z" fill="#EBEBEB"/>
<path d="M342.242 172.066L341.274 182.151L332.308 184.417V192.252L348.789 187.974L348.911 186.702L350.308 172.066H342.242V172.066Z" fill="white"/>
<path d="M332.308 149.189V156.754H313.617L313.461 155.053L313.108 151.218L312.923 149.189H332.308V149.189ZM332.28 164.501V172.066H323.771L323.616 170.365L323.265 166.53L323.08 164.501H332.28V164.501Z" fill="#EBEBEB"/>
<rect x="288" y="126" width="80" height="84" fill="black" fill-opacity="0.2"/>
<path d="M109.016 88.7881L103.4 25.8H165.111L159.487 88.7782L134.218 95.784L109.016 88.7881Z" fill="#E44F26"/>
<path d="M134.255 90.4303L154.676 84.7691L159.48 30.9514H134.255V90.4303Z" fill="#F1662A"/>
<path d="M134.255 54.3111H124.033L123.328 46.4004H134.255V38.6747H114.885L115.07 40.7492L116.967 62.0368H134.255V54.3111V54.3111ZM134.255 74.374L134.22 74.384L125.617 72.0621L125.068 65.901H117.312L118.394 78.0282L134.22 82.4222L134.255 82.4122V74.374Z" fill="#EBEBEB"/>
<path d="M134.228 54.3111V62.0368H143.741L142.846 72.057L134.228 74.3815V82.4197L150.067 78.0282L150.182 76.7235L151.996 56.3856L152.186 54.3111H134.228V54.3111ZM134.228 38.6747V46.4004H152.889L153.044 44.6658L153.396 40.7492L153.581 38.6747H134.228V38.6747Z" fill="white"/>
<rect x="89" y="15" width="80" height="84" fill="black" fill-opacity="0.2"/>
<g clip-path="url(#clip4_27_6)">
<path d="M1147.19 105.679C1144.68 102.695 1142.51 99.6645 1142.07 99.0352C1142.06 99.0242 1142.05 99.0154 1142.03 99.0094C1142.02 99.0033 1142 99.0002 1141.99 99.0002C1141.97 99.0002 1141.96 99.0033 1141.94 99.0094C1141.93 99.0154 1141.92 99.0242 1141.91 99.0352C1141.47 99.6646 1139.3 102.695 1136.78 105.679C1115.2 133.208 1140.18 151.787 1140.18 151.787L1140.39 151.927C1140.58 154.794 1141.05 158.92 1141.05 158.92H1142.91C1142.91 158.92 1143.37 154.817 1143.56 151.927L1143.77 151.764C1143.79 151.787 1168.78 133.208 1147.19 105.679V105.679ZM1141.98 151.367C1141.98 151.367 1140.86 150.412 1140.56 149.922V149.875L1141.91 119.898C1141.91 119.805 1142.05 119.805 1142.05 119.898L1143.4 149.875V149.922C1143.1 150.412 1141.98 151.367 1141.98 151.367V151.367Z" fill="#01EC64"/>
<rect x="1128" y="99" width="28.2857" height="72" fill="black" fill-opacity="0.6"/>
</g>
<defs>
<linearGradient id="paint0_linear_27_6" x1="2398.16" y1="571.51" x2="1039.5" y2="2706.87" gradientUnits="userSpaceOnUse">
<stop stop-color="#41873F"/>
<stop offset="0.3288" stop-color="#418B3D"/>
<stop offset="0.6352" stop-color="#419637"/>
<stop offset="0.9319" stop-color="#3FA92D"/>
<stop offset="1" stop-color="#3FAE2A"/>
</linearGradient>
<clipPath id="clip0_27_6">
<rect width="67.3684" height="60" fill="white" transform="translate(9 121)"/>
</clipPath>
<clipPath id="clip1_27_6">
<rect width="99.7582" height="100" fill="white" transform="translate(925 13)"/>
</clipPath>
<clipPath id="clip2_27_6">
<rect width="130.476" height="80" fill="white" transform="translate(470)"/>
</clipPath>
<clipPath id="clip3_27_6">
<rect width="95.1282" height="70" fill="white" transform="translate(733 146)"/>
</clipPath>
<clipPath id="clip4_27_6">
<rect width="27.9781" height="60" fill="white" transform="translate(1128 99)"/>
</clipPath>
</defs>
</svg>
