<svg width="38" height="46" viewBox="0 0 38 46" fill="none" xmlns="http://www.w3.org/2000/svg">
<g clip-path="url(#clip0_6_319)">
<path d="M26.0895 16.7723C26.0895 19.1204 24.3359 21.0238 22.1726 21.0238C20.0096 21.0238 18.256 19.1204 18.256 16.7723C18.256 14.4244 20.0096 12.521 22.1728 12.521C24.3359 12.521 26.0895 14.4244 26.0895 16.7724V16.7723Z" fill="#FFC131"/>
<path d="M15.5853 24.6953C13.4221 24.6953 11.6685 26.5987 11.6685 28.9467C11.6685 31.2947 13.4221 33.1981 15.5853 33.1981C17.7484 33.1981 19.502 31.2947 19.502 28.9467C19.502 26.5987 17.7484 24.6953 15.5853 24.6953Z" fill="#24C8DB"/>
<path d="M30.2909 30.3962C28.7168 31.5008 26.9655 32.2743 25.1281 32.6765C25.6606 31.0286 25.8373 29.2699 25.6444 27.5361C29.92 25.9136 32.7559 21.499 32.6805 16.5834C32.6049 11.6676 29.6349 7.35787 25.3118 5.8912C20.9887 4.42437 16.2861 6.13074 13.645 10.1248C11.6521 10.3682 9.71286 10.9826 7.91237 11.9412C9.86853 5.09062 15.7347 0.445333 22.342 0.515057C28.9494 0.58478 34.7313 5.35294 36.5644 12.2436C38.3974 19.1343 35.847 26.5142 30.2909 30.396V30.3962ZM8.09051 14.8978L11.758 15.3809C11.8412 14.6121 11.9963 13.8545 12.2209 13.1198C10.7702 13.4859 9.37808 14.0852 8.09051 14.8978Z" fill="#FFC131"/>
<path d="M7.44946 15.3231C9.03304 14.2072 10.797 13.4269 12.648 13.0234C12.0881 14.6711 11.887 16.437 12.0605 18.183C7.80004 19.8283 4.9877 24.2486 5.07948 29.1562C5.17113 34.0637 8.14619 38.3566 12.4648 39.813C16.7832 41.2693 21.4757 39.562 24.1132 35.5751C26.105 35.3378 28.0442 34.7298 29.8458 33.7778C27.8851 40.6214 22.0217 45.2589 15.4195 45.1884C8.81737 45.1182 3.03897 40.3567 1.202 33.473C-0.635112 26.5895 1.9043 19.2127 7.4496 15.3231H7.44946ZM29.6501 30.8212L29.5787 30.8599L29.6501 30.8212Z" fill="#24C8DB"/>
</g>
<defs>
<clipPath id="clip0_6_319">
<rect width="36.5424" height="44.778" fill="white" transform="translate(0.610184 0.514282)"/>
</clipPath>
</defs>
</svg>
