<svg width="30" height="31" viewBox="0 0 30 31" fill="none" xmlns="http://www.w3.org/2000/svg">
<g clip-path="url(#clip0_6_267)">
<path d="M0.640173 14.9363C0.63947 17.4765 1.30322 19.9569 2.56533 22.1432L0.51947 29.6129L8.16385 27.6086C10.2782 28.7596 12.6471 29.3627 15.0545 29.3629H15.0608C23.0079 29.3629 29.477 22.8961 29.4804 14.9476C29.4819 11.096 27.9833 7.47423 25.2606 4.74939C22.5383 2.02478 18.9178 0.523486 15.0602 0.521729C7.11221 0.521729 0.643572 6.98814 0.640291 14.9363" fill="#4F4F4F"/>
<path d="M0.125391 14.9316C0.12457 17.5632 0.812109 20.1323 2.11922 22.3969L0 30.1344L7.91848 28.0582C10.1003 29.2478 12.5568 29.875 15.0564 29.8759H15.0628C23.295 29.8759 29.9965 23.1765 30 14.9435C30.0014 10.9535 28.4489 7.20152 25.6289 4.37906C22.8086 1.55695 19.0586 0.00164062 15.0628 0C6.82922 0 0.128672 6.69844 0.125391 14.9316ZM4.84102 22.0069L4.54535 21.5375C3.30246 19.5613 2.64645 17.2775 2.64738 14.9325C2.65008 8.08934 8.2193 2.52187 15.0675 2.52187C18.3839 2.52328 21.5006 3.81609 23.8448 6.16172C26.1889 8.50758 27.4788 11.6259 27.478 14.9426C27.475 21.7857 21.9056 27.3539 15.0628 27.3539H15.0579C12.8298 27.3527 10.6446 26.7544 8.73891 25.6236L8.28539 25.3547L3.58641 26.5867L4.84102 22.0068V22.0069Z" fill="#252525"/>
<path d="M11.3295 8.68921C11.0499 8.06777 10.7556 8.05523 10.4897 8.04433C10.272 8.03495 10.0231 8.03566 9.7744 8.03566C9.5255 8.03566 9.12108 8.12929 8.77925 8.50253C8.43706 8.87613 7.47284 9.77894 7.47284 11.6151C7.47284 13.4515 8.8103 15.226 8.99675 15.4753C9.18343 15.7241 11.5787 19.6128 15.3723 21.1089C18.5251 22.3521 19.1667 22.1048 19.851 22.0425C20.5354 21.9804 22.0593 21.1399 22.3702 20.2684C22.6813 19.397 22.6813 18.65 22.588 18.4939C22.4948 18.3384 22.2458 18.245 21.8726 18.0585C21.4992 17.8718 19.6643 16.9689 19.3223 16.8443C18.9801 16.7198 18.7313 16.6577 18.4824 17.0314C18.2335 17.4046 17.5187 18.245 17.3009 18.4939C17.0833 18.7434 16.8654 18.7745 16.4923 18.5878C16.1188 18.4005 14.9168 18.0069 13.4908 16.7355C12.3812 15.7462 11.6322 14.5246 11.4144 14.1509C11.1967 13.7777 11.3911 13.5755 11.5783 13.3895C11.746 13.2223 11.9516 12.9537 12.1384 12.7358C12.3245 12.5178 12.3866 12.3623 12.5111 12.1134C12.6357 11.8643 12.5733 11.6463 12.4801 11.4596C12.3866 11.273 11.6614 9.42714 11.3295 8.68921Z" fill="#0E0E0E"/>
</g>
<defs>
<clipPath id="clip0_6_267">
<rect width="30" height="30.2344" fill="white"/>
</clipPath>
</defs>
</svg>
